0
SECTION
2
HEADER
9
$INSUNITS
70
4
0
ENDSEC
0
SECTION
2
TABLES
0
TABLE
2
LTYPE
0
LTYPE
72
65
70
64
2
CONTINUOUS
3
______
73
0
40
0
0
ENDTAB
0
TABLE
2
LAYER
0
ENDTAB
0
ENDSEC
0
SECTION
2
ENTITIES
0
LINE
8
0
10
2.5
20
-1.5
11
15.5
21
-1.5
0
LINE
8
0
10
2.5
20
-15.5
11
15.5
21
-15.5
0
LINE
8
0
10
2
20
-2
11
2
21
-15
0
LINE
8
0
10
16
20
-2
11
16
21
-15
0
ARC
8
0
10
2.5
20
-2
40
0.5
50
90
51
180
0
ARC
8
0
10
15.5
20
-2
40
0.5
50
0
51
90
0
ARC
8
0
10
2.5
20
-15
40
0.5
50
180
51
270
0
ARC
8
0
10
15.5
20
-15
40
0.5
50
270
51
0
0
LINE
8
0
10
20.5
20
-1.5
11
33.5
21
-1.5
0
LINE
8
0
10
20.5
20
-15.5
11
33.5
21
-15.5
0
LINE
8
0
10
20
20
-2
11
20
21
-15
0
LINE
8
0
10
34
20
-2
11
34
21
-15
0
ARC
8
0
10
20.5
20
-2
40
0.5
50
90
51
180
0
ARC
8
0
10
33.5
20
-2
40
0.5
50
0
51
90
0
ARC
8
0
10
20.5
20
-15
40
0.5
50
180
51
270
0
ARC
8
0
10
33.5
20
-15
40
0.5
50
270
51
0
0
LINE
8
0
10
38.5
20
-1.5
11
51.5
21
-1.5
0
LINE
8
0
10
38.5
20
-15.5
11
51.5
21
-15.5
0
LINE
8
0
10
38
20
-2
11
38
21
-15
0
LINE
8
0
10
52
20
-2
11
52
21
-15
0
ARC
8
0
10
38.5
20
-2
40
0.5
50
90
51
180
0
ARC
8
0
10
51.5
20
-2
40
0.5
50
0
51
90
0
ARC
8
0
10
38.5
20
-15
40
0.5
50
180
51
270
0
ARC
8
0
10
51.5
20
-15
40
0.5
50
270
51
0
0
LINE
8
0
10
56.5
20
-1.5
11
69.5
21
-1.5
0
LINE
8
0
10
56.5
20
-15.5
11
69.5
21
-15.5
0
LINE
8
0
10
56
20
-2
11
56
21
-15
0
LINE
8
0
10
70
20
-2
11
70
21
-15
0
ARC
8
0
10
56.5
20
-2
40
0.5
50
90
51
180
0
ARC
8
0
10
69.5
20
-2
40
0.5
50
0
51
90
0
ARC
8
0
10
56.5
20
-15
40
0.5
50
180
51
270
0
ARC
8
0
10
69.5
20
-15
40
0.5
50
270
51
0
0
LINE
8
0
10
74.5
20
-1.5
11
87.5
21
-1.5
0
LINE
8
0
10
74.5
20
-15.5
11
87.5
21
-15.5
0
LINE
8
0
10
74
20
-2
11
74
21
-15
0
LINE
8
0
10
88
20
-2
11
88
21
-15
0
ARC
8
0
10
74.5
20
-2
40
0.5
50
90
51
180
0
ARC
8
0
10
87.5
20
-2
40
0.5
50
0
51
90
0
ARC
8
0
10
74.5
20
-15
40
0.5
50
180
51
270
0
ARC
8
0
10
87.5
20
-15
40
0.5
50
270
51
0
0
LINE
8
0
10
128.5
20
-1.5
11
141.5
21
-1.5
0
LINE
8
0
10
128.5
20
-15.5
11
141.5
21
-15.5
0
LINE
8
0
10
128
20
-2
11
128
21
-15
0
LINE
8
0
10
142
20
-2
11
142
21
-15
0
ARC
8
0
10
128.5
20
-2
40
0.5
50
90
51
180
0
ARC
8
0
10
141.5
20
-2
40
0.5
50
0
51
90
0
ARC
8
0
10
128.5
20
-15
40
0.5
50
180
51
270
0
ARC
8
0
10
141.5
20
-15
40
0.5
50
270
51
0
0
LINE
8
0
10
146.5
20
-1.5
11
159.5
21
-1.5
0
LINE
8
0
10
146.5
20
-15.5
11
159.5
21
-15.5
0
LINE
8
0
10
146
20
-2
11
146
21
-15
0
LINE
8
0
10
160
20
-2
11
160
21
-15
0
ARC
8
0
10
146.5
20
-2
40
0.5
50
90
51
180
0
ARC
8
0
10
159.5
20
-2
40
0.5
50
0
51
90
0
ARC
8
0
10
146.5
20
-15
40
0.5
50
180
51
270
0
ARC
8
0
10
159.5
20
-15
40
0.5
50
270
51
0
0
LINE
8
0
10
164.5
20
-1.5
11
177.5
21
-1.5
0
LINE
8
0
10
164.5
20
-15.5
11
177.5
21
-15.5
0
LINE
8
0
10
164
20
-2
11
164
21
-15
0
LINE
8
0
10
178
20
-2
11
178
21
-15
0
ARC
8
0
10
164.5
20
-2
40
0.5
50
90
51
180
0
ARC
8
0
10
177.5
20
-2
40
0.5
50
0
51
90
0
ARC
8
0
10
164.5
20
-15
40
0.5
50
180
51
270
0
ARC
8
0
10
177.5
20
-15
40
0.5
50
270
51
0
0
LINE
8
0
10
182.5
20
-1.5
11
195.5
21
-1.5
0
LINE
8
0
10
182.5
20
-15.5
11
195.5
21
-15.5
0
LINE
8
0
10
182
20
-2
11
182
21
-15
0
LINE
8
0
10
196
20
-2
11
196
21
-15
0
ARC
8
0
10
182.5
20
-2
40
0.5
50
90
51
180
0
ARC
8
0
10
195.5
20
-2
40
0.5
50
0
51
90
0
ARC
8
0
10
182.5
20
-15
40
0.5
50
180
51
270
0
ARC
8
0
10
195.5
20
-15
40
0.5
50
270
51
0
0
LINE
8
0
10
200.5
20
-1.5
11
213.5
21
-1.5
0
LINE
8
0
10
200.5
20
-15.5
11
213.5
21
-15.5
0
LINE
8
0
10
200
20
-2
11
200
21
-15
0
LINE
8
0
10
214
20
-2
11
214
21
-15
0
ARC
8
0
10
200.5
20
-2
40
0.5
50
90
51
180
0
ARC
8
0
10
213.5
20
-2
40
0.5
50
0
51
90
0
ARC
8
0
10
200.5
20
-15
40
0.5
50
180
51
270
0
ARC
8
0
10
213.5
20
-15
40
0.5
50
270
51
0
0
LINE
8
0
10
2.5
20
-18.5
11
15.5
21
-18.5
0
LINE
8
0
10
2.5
20
-32.5
11
15.5
21
-32.5
0
LINE
8
0
10
2
20
-19
11
2
21
-32
0
LINE
8
0
10
16
20
-19
11
16
21
-32
0
ARC
8
0
10
2.5
20
-19
40
0.5
50
90
51
180
0
ARC
8
0
10
15.5
20
-19
40
0.5
50
0
51
90
0
ARC
8
0
10
2.5
20
-32
40
0.5
50
180
51
270
0
ARC
8
0
10
15.5
20
-32
40
0.5
50
270
51
0
0
LINE
8
0
10
20.5
20
-18.5
11
33.5
21
-18.5
0
LINE
8
0
10
20.5
20
-32.5
11
33.5
21
-32.5
0
LINE
8
0
10
20
20
-19
11
20
21
-32
0
LINE
8
0
10
34
20
-19
11
34
21
-32
0
ARC
8
0
10
20.5
20
-19
40
0.5
50
90
51
180
0
ARC
8
0
10
33.5
20
-19
40
0.5
50
0
51
90
0
ARC
8
0
10
20.5
20
-32
40
0.5
50
180
51
270
0
ARC
8
0
10
33.5
20
-32
40
0.5
50
270
51
0
0
LINE
8
0
10
38.5
20
-18.5
11
51.5
21
-18.5
0
LINE
8
0
10
38.5
20
-32.5
11
51.5
21
-32.5
0
LINE
8
0
10
38
20
-19
11
38
21
-32
0
LINE
8
0
10
52
20
-19
11
52
21
-32
0
ARC
8
0
10
38.5
20
-19
40
0.5
50
90
51
180
0
ARC
8
0
10
51.5
20
-19
40
0.5
50
0
51
90
0
ARC
8
0
10
38.5
20
-32
40
0.5
50
180
51
270
0
ARC
8
0
10
51.5
20
-32
40
0.5
50
270
51
0
0
LINE
8
0
10
56.5
20
-18.5
11
69.5
21
-18.5
0
LINE
8
0
10
56.5
20
-32.5
11
69.5
21
-32.5
0
LINE
8
0
10
56
20
-19
11
56
21
-32
0
LINE
8
0
10
70
20
-19
11
70
21
-32
0
ARC
8
0
10
56.5
20
-19
40
0.5
50
90
51
180
0
ARC
8
0
10
69.5
20
-19
40
0.5
50
0
51
90
0
ARC
8
0
10
56.5
20
-32
40
0.5
50
180
51
270
0
ARC
8
0
10
69.5
20
-32
40
0.5
50
270
51
0
0
LINE
8
0
10
74.5
20
-18.5
11
87.5
21
-18.5
0
LINE
8
0
10
74.5
20
-32.5
11
87.5
21
-32.5
0
LINE
8
0
10
74
20
-19
11
74
21
-32
0
LINE
8
0
10
88
20
-19
11
88
21
-32
0
ARC
8
0
10
74.5
20
-19
40
0.5
50
90
51
180
0
ARC
8
0
10
87.5
20
-19
40
0.5
50
0
51
90
0
ARC
8
0
10
74.5
20
-32
40
0.5
50
180
51
270
0
ARC
8
0
10
87.5
20
-32
40
0.5
50
270
51
0
0
LINE
8
0
10
128.5
20
-18.5
11
141.5
21
-18.5
0
LINE
8
0
10
128.5
20
-32.5
11
141.5
21
-32.5
0
LINE
8
0
10
128
20
-19
11
128
21
-32
0
LINE
8
0
10
142
20
-19
11
142
21
-32
0
ARC
8
0
10
128.5
20
-19
40
0.5
50
90
51
180
0
ARC
8
0
10
141.5
20
-19
40
0.5
50
0
51
90
0
ARC
8
0
10
128.5
20
-32
40
0.5
50
180
51
270
0
ARC
8
0
10
141.5
20
-32
40
0.5
50
270
51
0
0
LINE
8
0
10
146.5
20
-18.5
11
159.5
21
-18.5
0
LINE
8
0
10
146.5
20
-32.5
11
159.5
21
-32.5
0
LINE
8
0
10
146
20
-19
11
146
21
-32
0
LINE
8
0
10
160
20
-19
11
160
21
-32
0
ARC
8
0
10
146.5
20
-19
40
0.5
50
90
51
180
0
ARC
8
0
10
159.5
20
-19
40
0.5
50
0
51
90
0
ARC
8
0
10
146.5
20
-32
40
0.5
50
180
51
270
0
ARC
8
0
10
159.5
20
-32
40
0.5
50
270
51
0
0
LINE
8
0
10
164.5
20
-18.5
11
177.5
21
-18.5
0
LINE
8
0
10
164.5
20
-32.5
11
177.5
21
-32.5
0
LINE
8
0
10
164
20
-19
11
164
21
-32
0
LINE
8
0
10
178
20
-19
11
178
21
-32
0
ARC
8
0
10
164.5
20
-19
40
0.5
50
90
51
180
0
ARC
8
0
10
177.5
20
-19
40
0.5
50
0
51
90
0
ARC
8
0
10
164.5
20
-32
40
0.5
50
180
51
270
0
ARC
8
0
10
177.5
20
-32
40
0.5
50
270
51
0
0
LINE
8
0
10
182.5
20
-18.5
11
195.5
21
-18.5
0
LINE
8
0
10
182.5
20
-32.5
11
195.5
21
-32.5
0
LINE
8
0
10
182
20
-19
11
182
21
-32
0
LINE
8
0
10
196
20
-19
11
196
21
-32
0
ARC
8
0
10
182.5
20
-19
40
0.5
50
90
51
180
0
ARC
8
0
10
195.5
20
-19
40
0.5
50
0
51
90
0
ARC
8
0
10
182.5
20
-32
40
0.5
50
180
51
270
0
ARC
8
0
10
195.5
20
-32
40
0.5
50
270
51
0
0
LINE
8
0
10
200.5
20
-18.5
11
213.5
21
-18.5
0
LINE
8
0
10
200.5
20
-32.5
11
213.5
21
-32.5
0
LINE
8
0
10
200
20
-19
11
200
21
-32
0
LINE
8
0
10
214
20
-19
11
214
21
-32
0
ARC
8
0
10
200.5
20
-19
40
0.5
50
90
51
180
0
ARC
8
0
10
213.5
20
-19
40
0.5
50
0
51
90
0
ARC
8
0
10
200.5
20
-32
40
0.5
50
180
51
270
0
ARC
8
0
10
213.5
20
-32
40
0.5
50
270
51
0
0
LINE
8
0
10
2.5
20
-35.5
11
15.5
21
-35.5
0
LINE
8
0
10
2.5
20
-49.5
11
15.5
21
-49.5
0
LINE
8
0
10
2
20
-36
11
2
21
-49
0
LINE
8
0
10
16
20
-36
11
16
21
-49
0
ARC
8
0
10
2.5
20
-36
40
0.5
50
90
51
180
0
ARC
8
0
10
15.5
20
-36
40
0.5
50
0
51
90
0
ARC
8
0
10
2.5
20
-49
40
0.5
50
180
51
270
0
ARC
8
0
10
15.5
20
-49
40
0.5
50
270
51
0
0
LINE
8
0
10
20.5
20
-35.5
11
33.5
21
-35.5
0
LINE
8
0
10
20.5
20
-49.5
11
33.5
21
-49.5
0
LINE
8
0
10
20
20
-36
11
20
21
-49
0
LINE
8
0
10
34
20
-36
11
34
21
-49
0
ARC
8
0
10
20.5
20
-36
40
0.5
50
90
51
180
0
ARC
8
0
10
33.5
20
-36
40
0.5
50
0
51
90
0
ARC
8
0
10
20.5
20
-49
40
0.5
50
180
51
270
0
ARC
8
0
10
33.5
20
-49
40
0.5
50
270
51
0
0
LINE
8
0
10
38.5
20
-35.5
11
51.5
21
-35.5
0
LINE
8
0
10
38.5
20
-49.5
11
51.5
21
-49.5
0
LINE
8
0
10
38
20
-36
11
38
21
-49
0
LINE
8
0
10
52
20
-36
11
52
21
-49
0
ARC
8
0
10
38.5
20
-36
40
0.5
50
90
51
180
0
ARC
8
0
10
51.5
20
-36
40
0.5
50
0
51
90
0
ARC
8
0
10
38.5
20
-49
40
0.5
50
180
51
270
0
ARC
8
0
10
51.5
20
-49
40
0.5
50
270
51
0
0
LINE
8
0
10
56.5
20
-35.5
11
69.5
21
-35.5
0
LINE
8
0
10
56.5
20
-49.5
11
69.5
21
-49.5
0
LINE
8
0
10
56
20
-36
11
56
21
-49
0
LINE
8
0
10
70
20
-36
11
70
21
-49
0
ARC
8
0
10
56.5
20
-36
40
0.5
50
90
51
180
0
ARC
8
0
10
69.5
20
-36
40
0.5
50
0
51
90
0
ARC
8
0
10
56.5
20
-49
40
0.5
50
180
51
270
0
ARC
8
0
10
69.5
20
-49
40
0.5
50
270
51
0
0
LINE
8
0
10
74.5
20
-35.5
11
87.5
21
-35.5
0
LINE
8
0
10
74.5
20
-49.5
11
87.5
21
-49.5
0
LINE
8
0
10
74
20
-36
11
74
21
-49
0
LINE
8
0
10
88
20
-36
11
88
21
-49
0
ARC
8
0
10
74.5
20
-36
40
0.5
50
90
51
180
0
ARC
8
0
10
87.5
20
-36
40
0.5
50
0
51
90
0
ARC
8
0
10
74.5
20
-49
40
0.5
50
180
51
270
0
ARC
8
0
10
87.5
20
-49
40
0.5
50
270
51
0
0
LINE
8
0
10
128.5
20
-35.5
11
141.5
21
-35.5
0
LINE
8
0
10
128.5
20
-49.5
11
141.5
21
-49.5
0
LINE
8
0
10
128
20
-36
11
128
21
-49
0
LINE
8
0
10
142
20
-36
11
142
21
-49
0
ARC
8
0
10
128.5
20
-36
40
0.5
50
90
51
180
0
ARC
8
0
10
141.5
20
-36
40
0.5
50
0
51
90
0
ARC
8
0
10
128.5
20
-49
40
0.5
50
180
51
270
0
ARC
8
0
10
141.5
20
-49
40
0.5
50
270
51
0
0
LINE
8
0
10
146.5
20
-35.5
11
159.5
21
-35.5
0
LINE
8
0
10
146.5
20
-49.5
11
159.5
21
-49.5
0
LINE
8
0
10
146
20
-36
11
146
21
-49
0
LINE
8
0
10
160
20
-36
11
160
21
-49
0
ARC
8
0
10
146.5
20
-36
40
0.5
50
90
51
180
0
ARC
8
0
10
159.5
20
-36
40
0.5
50
0
51
90
0
ARC
8
0
10
146.5
20
-49
40
0.5
50
180
51
270
0
ARC
8
0
10
159.5
20
-49
40
0.5
50
270
51
0
0
LINE
8
0
10
164.5
20
-35.5
11
177.5
21
-35.5
0
LINE
8
0
10
164.5
20
-49.5
11
177.5
21
-49.5
0
LINE
8
0
10
164
20
-36
11
164
21
-49
0
LINE
8
0
10
178
20
-36
11
178
21
-49
0
ARC
8
0
10
164.5
20
-36
40
0.5
50
90
51
180
0
ARC
8
0
10
177.5
20
-36
40
0.5
50
0
51
90
0
ARC
8
0
10
164.5
20
-49
40
0.5
50
180
51
270
0
ARC
8
0
10
177.5
20
-49
40
0.5
50
270
51
0
0
LINE
8
0
10
182.5
20
-35.5
11
195.5
21
-35.5
0
LINE
8
0
10
182.5
20
-49.5
11
195.5
21
-49.5
0
LINE
8
0
10
182
20
-36
11
182
21
-49
0
LINE
8
0
10
196
20
-36
11
196
21
-49
0
ARC
8
0
10
182.5
20
-36
40
0.5
50
90
51
180
0
ARC
8
0
10
195.5
20
-36
40
0.5
50
0
51
90
0
ARC
8
0
10
182.5
20
-49
40
0.5
50
180
51
270
0
ARC
8
0
10
195.5
20
-49
40
0.5
50
270
51
0
0
LINE
8
0
10
200.5
20
-35.5
11
213.5
21
-35.5
0
LINE
8
0
10
200.5
20
-49.5
11
213.5
21
-49.5
0
LINE
8
0
10
200
20
-36
11
200
21
-49
0
LINE
8
0
10
214
20
-36
11
214
21
-49
0
ARC
8
0
10
200.5
20
-36
40
0.5
50
90
51
180
0
ARC
8
0
10
213.5
20
-36
40
0.5
50
0
51
90
0
ARC
8
0
10
200.5
20
-49
40
0.5
50
180
51
270
0
ARC
8
0
10
213.5
20
-49
40
0.5
50
270
51
0
0
LINE
8
0
10
2.5
20
-52.5
11
15.5
21
-52.5
0
LINE
8
0
10
2.5
20
-66.5
11
15.5
21
-66.5
0
LINE
8
0
10
2
20
-53
11
2
21
-66
0
LINE
8
0
10
16
20
-53
11
16
21
-66
0
ARC
8
0
10
2.5
20
-53
40
0.5
50
90
51
180
0
ARC
8
0
10
15.5
20
-53
40
0.5
50
0
51
90
0
ARC
8
0
10
2.5
20
-66
40
0.5
50
180
51
270
0
ARC
8
0
10
15.5
20
-66
40
0.5
50
270
51
0
0
LINE
8
0
10
20.5
20
-52.5
11
33.5
21
-52.5
0
LINE
8
0
10
20.5
20
-66.5
11
33.5
21
-66.5
0
LINE
8
0
10
20
20
-53
11
20
21
-66
0
LINE
8
0
10
34
20
-53
11
34
21
-66
0
ARC
8
0
10
20.5
20
-53
40
0.5
50
90
51
180
0
ARC
8
0
10
33.5
20
-53
40
0.5
50
0
51
90
0
ARC
8
0
10
20.5
20
-66
40
0.5
50
180
51
270
0
ARC
8
0
10
33.5
20
-66
40
0.5
50
270
51
0
0
LINE
8
0
10
38.5
20
-52.5
11
51.5
21
-52.5
0
LINE
8
0
10
38.5
20
-66.5
11
51.5
21
-66.5
0
LINE
8
0
10
38
20
-53
11
38
21
-66
0
LINE
8
0
10
52
20
-53
11
52
21
-66
0
ARC
8
0
10
38.5
20
-53
40
0.5
50
90
51
180
0
ARC
8
0
10
51.5
20
-53
40
0.5
50
0
51
90
0
ARC
8
0
10
38.5
20
-66
40
0.5
50
180
51
270
0
ARC
8
0
10
51.5
20
-66
40
0.5
50
270
51
0
0
LINE
8
0
10
56.5
20
-52.5
11
69.5
21
-52.5
0
LINE
8
0
10
56.5
20
-66.5
11
69.5
21
-66.5
0
LINE
8
0
10
56
20
-53
11
56
21
-66
0
LINE
8
0
10
70
20
-53
11
70
21
-66
0
ARC
8
0
10
56.5
20
-53
40
0.5
50
90
51
180
0
ARC
8
0
10
69.5
20
-53
40
0.5
50
0
51
90
0
ARC
8
0
10
56.5
20
-66
40
0.5
50
180
51
270
0
ARC
8
0
10
69.5
20
-66
40
0.5
50
270
51
0
0
LINE
8
0
10
74.5
20
-52.5
11
87.5
21
-52.5
0
LINE
8
0
10
74.5
20
-66.5
11
87.5
21
-66.5
0
LINE
8
0
10
74
20
-53
11
74
21
-66
0
LINE
8
0
10
88
20
-53
11
88
21
-66
0
ARC
8
0
10
74.5
20
-53
40
0.5
50
90
51
180
0
ARC
8
0
10
87.5
20
-53
40
0.5
50
0
51
90
0
ARC
8
0
10
74.5
20
-66
40
0.5
50
180
51
270
0
ARC
8
0
10
87.5
20
-66
40
0.5
50
270
51
0
0
LINE
8
0
10
128.5
20
-52.5
11
141.5
21
-52.5
0
LINE
8
0
10
128.5
20
-66.5
11
141.5
21
-66.5
0
LINE
8
0
10
128
20
-53
11
128
21
-66
0
LINE
8
0
10
142
20
-53
11
142
21
-66
0
ARC
8
0
10
128.5
20
-53
40
0.5
50
90
51
180
0
ARC
8
0
10
141.5
20
-53
40
0.5
50
0
51
90
0
ARC
8
0
10
128.5
20
-66
40
0.5
50
180
51
270
0
ARC
8
0
10
141.5
20
-66
40
0.5
50
270
51
0
0
LINE
8
0
10
146.5
20
-52.5
11
159.5
21
-52.5
0
LINE
8
0
10
146.5
20
-66.5
11
159.5
21
-66.5
0
LINE
8
0
10
146
20
-53
11
146
21
-66
0
LINE
8
0
10
160
20
-53
11
160
21
-66
0
ARC
8
0
10
146.5
20
-53
40
0.5
50
90
51
180
0
ARC
8
0
10
159.5
20
-53
40
0.5
50
0
51
90
0
ARC
8
0
10
146.5
20
-66
40
0.5
50
180
51
270
0
ARC
8
0
10
159.5
20
-66
40
0.5
50
270
51
0
0
LINE
8
0
10
164.5
20
-52.5
11
177.5
21
-52.5
0
LINE
8
0
10
164.5
20
-66.5
11
177.5
21
-66.5
0
LINE
8
0
10
164
20
-53
11
164
21
-66
0
LINE
8
0
10
178
20
-53
11
178
21
-66
0
ARC
8
0
10
164.5
20
-53
40
0.5
50
90
51
180
0
ARC
8
0
10
177.5
20
-53
40
0.5
50
0
51
90
0
ARC
8
0
10
164.5
20
-66
40
0.5
50
180
51
270
0
ARC
8
0
10
177.5
20
-66
40
0.5
50
270
51
0
0
LINE
8
0
10
182.5
20
-52.5
11
195.5
21
-52.5
0
LINE
8
0
10
182.5
20
-66.5
11
195.5
21
-66.5
0
LINE
8
0
10
182
20
-53
11
182
21
-66
0
LINE
8
0
10
196
20
-53
11
196
21
-66
0
ARC
8
0
10
182.5
20
-53
40
0.5
50
90
51
180
0
ARC
8
0
10
195.5
20
-53
40
0.5
50
0
51
90
0
ARC
8
0
10
182.5
20
-66
40
0.5
50
180
51
270
0
ARC
8
0
10
195.5
20
-66
40
0.5
50
270
51
0
0
LINE
8
0
10
200.5
20
-52.5
11
213.5
21
-52.5
0
LINE
8
0
10
200.5
20
-66.5
11
213.5
21
-66.5
0
LINE
8
0
10
200
20
-53
11
200
21
-66
0
LINE
8
0
10
214
20
-53
11
214
21
-66
0
ARC
8
0
10
200.5
20
-53
40
0.5
50
90
51
180
0
ARC
8
0
10
213.5
20
-53
40
0.5
50
0
51
90
0
ARC
8
0
10
200.5
20
-66
40
0.5
50
180
51
270
0
ARC
8
0
10
213.5
20
-66
40
0.5
50
270
51
0
0
LINE
8
0
10
0
20
-68
11
216
21
-68
0
LINE
8
0
10
0
20
0
11
216
21
0
0
LINE
8
0
10
0
20
-68
11
0
21
0
0
LINE
8
0
10
216
20
-68
11
216
21
0
0
ENDSEC
0
EOF