<?xml version="1.0" encoding="UTF-8" standalone="no"?>
<svg
   viewBox="0 0 134.79527 256.49607"
   width="134.79527"
   height="256.49606"
   version="1.1"
   id="svg37"
   sodipodi:docname="plate_outline.svg"
   inkscape:version="1.1.1 (c3084ef, 2021-09-22)"
   xmlns:inkscape="http://www.inkscape.org/namespaces/inkscape"
   xmlns:sodipodi="http://sodipodi.sourceforge.net/DTD/sodipodi-0.dtd"
   xmlns="http://www.w3.org/2000/svg"
   xmlns:svg="http://www.w3.org/2000/svg">
  <sodipodi:namedview
     id="namedview39"
     pagecolor="#505050"
     bordercolor="#eeeeee"
     borderopacity="1"
     inkscape:pageshadow="0"
     inkscape:pageopacity="0"
     inkscape:pagecheckerboard="0"
     showgrid="false"
     inkscape:zoom="2.0132919"
     inkscape:cx="109.02542"
     inkscape:cy="251.57802"
     inkscape:window-width="1312"
     inkscape:window-height="785"
     inkscape:window-x="0"
     inkscape:window-y="0"
     inkscape:window-maximized="0"
     inkscape:current-layer="g35" />
  <desc
     id="desc9">plate_outline.dxf - scale = 1.0, origin = (0.0, 0.0), method = manual</desc>
  <defs
     id="defs23">
    <marker
       id="DistanceX"
       orient="auto"
       refX="0"
       refY="0"
       style="overflow:visible">
      <path
         d="M 3,-3 -3,3 M 0,-5 V 5"
         style="stroke:#000000;stroke-width:0.5"
         id="path11" />
    </marker>
    <pattern
       id="Hatch"
       patternUnits="userSpaceOnUse"
       width="8"
       height="8"
       x="0"
       y="0">
      <path
         d="M8 4 l-4,4"
         stroke="#000000"
         stroke-width="0.25"
         linecap="square"
         id="path14" />
      <path
         d="M6 2 l-4,4"
         stroke="#000000"
         stroke-width="0.25"
         linecap="square"
         id="path16" />
      <path
         d="M4 0 l-4,4"
         stroke="#000000"
         stroke-width="0.25"
         linecap="square"
         id="path18" />
    </pattern>
    <symbol
       id="*MODEL_SPACE" />
    <symbol
       id="*PAPER_SPACE" />
  </defs>
  <g
     inkscape:groupmode="layer"
     inkscape:label="0"
     id="g35"
     transform="translate(0.5,-866.52362)">
    <path
       d="M 133.79528,1114.9606 V 874.58268 a 7.559055,7.559055 0 0 0 -7.55906,-7.55906 H 7.559055 A 7.559055,7.559055 0 0 0 0,874.58268 v 240.37792 a 7.559055,7.559055 0 0 0 7.559055,7.5591 h 115.653545 3.02362 a 7.559055,7.559055 0 0 0 7.55906,-7.5591 z"
       style="fill:none;stroke:#ff0000;stroke-opacity:1"
       id="path25" />
    <path
       d="m 14.740157,1113.8268 a 4.15748,4.15748 0 1 0 -8.31496,0 4.15748,4.15748 0 1 0 8.31496,0 z"
       style="fill:none;stroke:#ff0000;stroke-opacity:1"
       id="path27" />
    <path
       d="m 127.37008,1113.8268 a 4.1574805,4.1574805 0 1 0 -8.31496,0 4.1574805,4.1574805 0 1 0 8.31496,0 z"
       style="fill:none;stroke:#ff0000;stroke-opacity:1"
       id="path29" />
    <path
       d="m 14.740157,875.71654 a 4.15748,4.15748 0 1 0 -8.31496,0 4.15748,4.15748 0 1 0 8.31496,0 z"
       style="fill:none;stroke:#ff0000;stroke-opacity:1"
       id="path31" />
    <path
       d="m 127.37008,875.71654 a 4.1574805,4.1574805 0 1 0 -8.31496,0 4.1574805,4.1574805 0 1 0 8.31496,0 z"
       style="fill:none;stroke:#ff0000;stroke-opacity:1"
       id="path33" />
  </g>
</svg>
