<svg width="216mm" height="68mm" viewBox="0 0 216 68" xmlns="http://www.w3.org/2000/svg"><g id="svgGroup" stroke-linecap="round" fill-rule="evenodd" font-size="9pt" stroke="#000" stroke-width="0.25mm" fill="none" style="stroke:#000;stroke-width:0.25mm;fill:none"><path d="M 0 68 L 216 68 L 216 0 L 0 0 L 0 68 Z M 2.5 1.5 L 15.5 1.5 A 0.5 0.5 0 0 1 16 2 L 16 15 A 0.5 0.5 0 0 1 15.5 15.5 L 2.5 15.5 A 0.5 0.5 0 0 1 2 15 L 2 2 A 0.5 0.5 0 0 1 2.5 1.5 Z M 20.5 1.5 L 33.5 1.5 A 0.5 0.5 0 0 1 34 2 L 34 15 A 0.5 0.5 0 0 1 33.5 15.5 L 20.5 15.5 A 0.5 0.5 0 0 1 20 15 L 20 2 A 0.5 0.5 0 0 1 20.5 1.5 Z M 38.5 1.5 L 51.5 1.5 A 0.5 0.5 0 0 1 52 2 L 52 15 A 0.5 0.5 0 0 1 51.5 15.5 L 38.5 15.5 A 0.5 0.5 0 0 1 38 15 L 38 2 A 0.5 0.5 0 0 1 38.5 1.5 Z M 56.5 1.5 L 69.5 1.5 A 0.5 0.5 0 0 1 70 2 L 70 15 A 0.5 0.5 0 0 1 69.5 15.5 L 56.5 15.5 A 0.5 0.5 0 0 1 56 15 L 56 2 A 0.5 0.5 0 0 1 56.5 1.5 Z M 74.5 1.5 L 87.5 1.5 A 0.5 0.5 0 0 1 88 2 L 88 15 A 0.5 0.5 0 0 1 87.5 15.5 L 74.5 15.5 A 0.5 0.5 0 0 1 74 15 L 74 2 A 0.5 0.5 0 0 1 74.5 1.5 Z M 92.5 1.5 L 105.5 1.5 A 0.5 0.5 0 0 1 106 2 L 106 15 A 0.5 0.5 0 0 1 105.5 15.5 L 92.5 15.5 A 0.5 0.5 0 0 1 92 15 L 92 2 A 0.5 0.5 0 0 1 92.5 1.5 Z M 110.5 1.5 L 123.5 1.5 A 0.5 0.5 0 0 1 124 2 L 124 15 A 0.5 0.5 0 0 1 123.5 15.5 L 110.5 15.5 A 0.5 0.5 0 0 1 110 15 L 110 2 A 0.5 0.5 0 0 1 110.5 1.5 Z M 128.5 1.5 L 141.5 1.5 A 0.5 0.5 0 0 1 142 2 L 142 15 A 0.5 0.5 0 0 1 141.5 15.5 L 128.5 15.5 A 0.5 0.5 0 0 1 128 15 L 128 2 A 0.5 0.5 0 0 1 128.5 1.5 Z M 146.5 1.5 L 159.5 1.5 A 0.5 0.5 0 0 1 160 2 L 160 15 A 0.5 0.5 0 0 1 159.5 15.5 L 146.5 15.5 A 0.5 0.5 0 0 1 146 15 L 146 2 A 0.5 0.5 0 0 1 146.5 1.5 Z M 164.5 1.5 L 177.5 1.5 A 0.5 0.5 0 0 1 178 2 L 178 15 A 0.5 0.5 0 0 1 177.5 15.5 L 164.5 15.5 A 0.5 0.5 0 0 1 164 15 L 164 2 A 0.5 0.5 0 0 1 164.5 1.5 Z M 182.5 1.5 L 195.5 1.5 A 0.5 0.5 0 0 1 196 2 L 196 15 A 0.5 0.5 0 0 1 195.5 15.5 L 182.5 15.5 A 0.5 0.5 0 0 1 182 15 L 182 2 A 0.5 0.5 0 0 1 182.5 1.5 Z M 200.5 1.5 L 213.5 1.5 A 0.5 0.5 0 0 1 214 2 L 214 15 A 0.5 0.5 0 0 1 213.5 15.5 L 200.5 15.5 A 0.5 0.5 0 0 1 200 15 L 200 2 A 0.5 0.5 0 0 1 200.5 1.5 Z M 2.5 18.5 L 15.5 18.5 A 0.5 0.5 0 0 1 16 19 L 16 32 A 0.5 0.5 0 0 1 15.5 32.5 L 2.5 32.5 A 0.5 0.5 0 0 1 2 32 L 2 19 A 0.5 0.5 0 0 1 2.5 18.5 Z M 20.5 18.5 L 33.5 18.5 A 0.5 0.5 0 0 1 34 19 L 34 32 A 0.5 0.5 0 0 1 33.5 32.5 L 20.5 32.5 A 0.5 0.5 0 0 1 20 32 L 20 19 A 0.5 0.5 0 0 1 20.5 18.5 Z M 38.5 18.5 L 51.5 18.5 A 0.5 0.5 0 0 1 52 19 L 52 32 A 0.5 0.5 0 0 1 51.5 32.5 L 38.5 32.5 A 0.5 0.5 0 0 1 38 32 L 38 19 A 0.5 0.5 0 0 1 38.5 18.5 Z M 56.5 18.5 L 69.5 18.5 A 0.5 0.5 0 0 1 70 19 L 70 32 A 0.5 0.5 0 0 1 69.5 32.5 L 56.5 32.5 A 0.5 0.5 0 0 1 56 32 L 56 19 A 0.5 0.5 0 0 1 56.5 18.5 Z M 74.5 18.5 L 87.5 18.5 A 0.5 0.5 0 0 1 88 19 L 88 32 A 0.5 0.5 0 0 1 87.5 32.5 L 74.5 32.5 A 0.5 0.5 0 0 1 74 32 L 74 19 A 0.5 0.5 0 0 1 74.5 18.5 Z M 92.5 18.5 L 105.5 18.5 A 0.5 0.5 0 0 1 106 19 L 106 32 A 0.5 0.5 0 0 1 105.5 32.5 L 92.5 32.5 A 0.5 0.5 0 0 1 92 32 L 92 19 A 0.5 0.5 0 0 1 92.5 18.5 Z M 110.5 18.5 L 123.5 18.5 A 0.5 0.5 0 0 1 124 19 L 124 32 A 0.5 0.5 0 0 1 123.5 32.5 L 110.5 32.5 A 0.5 0.5 0 0 1 110 32 L 110 19 A 0.5 0.5 0 0 1 110.5 18.5 Z M 128.5 18.5 L 141.5 18.5 A 0.5 0.5 0 0 1 142 19 L 142 32 A 0.5 0.5 0 0 1 141.5 32.5 L 128.5 32.5 A 0.5 0.5 0 0 1 128 32 L 128 19 A 0.5 0.5 0 0 1 128.5 18.5 Z M 146.5 18.5 L 159.5 18.5 A 0.5 0.5 0 0 1 160 19 L 160 32 A 0.5 0.5 0 0 1 159.5 32.5 L 146.5 32.5 A 0.5 0.5 0 0 1 146 32 L 146 19 A 0.5 0.5 0 0 1 146.5 18.5 Z M 164.5 18.5 L 177.5 18.5 A 0.5 0.5 0 0 1 178 19 L 178 32 A 0.5 0.5 0 0 1 177.5 32.5 L 164.5 32.5 A 0.5 0.5 0 0 1 164 32 L 164 19 A 0.5 0.5 0 0 1 164.5 18.5 Z M 182.5 18.5 L 195.5 18.5 A 0.5 0.5 0 0 1 196 19 L 196 32 A 0.5 0.5 0 0 1 195.5 32.5 L 182.5 32.5 A 0.5 0.5 0 0 1 182 32 L 182 19 A 0.5 0.5 0 0 1 182.5 18.5 Z M 200.5 18.5 L 213.5 18.5 A 0.5 0.5 0 0 1 214 19 L 214 32 A 0.5 0.5 0 0 1 213.5 32.5 L 200.5 32.5 A 0.5 0.5 0 0 1 200 32 L 200 19 A 0.5 0.5 0 0 1 200.5 18.5 Z M 2.5 35.5 L 15.5 35.5 A 0.5 0.5 0 0 1 16 36 L 16 49 A 0.5 0.5 0 0 1 15.5 49.5 L 2.5 49.5 A 0.5 0.5 0 0 1 2 49 L 2 36 A 0.5 0.5 0 0 1 2.5 35.5 Z M 20.5 35.5 L 33.5 35.5 A 0.5 0.5 0 0 1 34 36 L 34 49 A 0.5 0.5 0 0 1 33.5 49.5 L 20.5 49.5 A 0.5 0.5 0 0 1 20 49 L 20 36 A 0.5 0.5 0 0 1 20.5 35.5 Z M 38.5 35.5 L 51.5 35.5 A 0.5 0.5 0 0 1 52 36 L 52 49 A 0.5 0.5 0 0 1 51.5 49.5 L 38.5 49.5 A 0.5 0.5 0 0 1 38 49 L 38 36 A 0.5 0.5 0 0 1 38.5 35.5 Z M 56.5 35.5 L 69.5 35.5 A 0.5 0.5 0 0 1 70 36 L 70 49 A 0.5 0.5 0 0 1 69.5 49.5 L 56.5 49.5 A 0.5 0.5 0 0 1 56 49 L 56 36 A 0.5 0.5 0 0 1 56.5 35.5 Z M 74.5 35.5 L 87.5 35.5 A 0.5 0.5 0 0 1 88 36 L 88 49 A 0.5 0.5 0 0 1 87.5 49.5 L 74.5 49.5 A 0.5 0.5 0 0 1 74 49 L 74 36 A 0.5 0.5 0 0 1 74.5 35.5 Z M 92.5 35.5 L 105.5 35.5 A 0.5 0.5 0 0 1 106 36 L 106 49 A 0.5 0.5 0 0 1 105.5 49.5 L 92.5 49.5 A 0.5 0.5 0 0 1 92 49 L 92 36 A 0.5 0.5 0 0 1 92.5 35.5 Z M 110.5 35.5 L 123.5 35.5 A 0.5 0.5 0 0 1 124 36 L 124 49 A 0.5 0.5 0 0 1 123.5 49.5 L 110.5 49.5 A 0.5 0.5 0 0 1 110 49 L 110 36 A 0.5 0.5 0 0 1 110.5 35.5 Z M 128.5 35.5 L 141.5 35.5 A 0.5 0.5 0 0 1 142 36 L 142 49 A 0.5 0.5 0 0 1 141.5 49.5 L 128.5 49.5 A 0.5 0.5 0 0 1 128 49 L 128 36 A 0.5 0.5 0 0 1 128.5 35.5 Z M 146.5 35.5 L 159.5 35.5 A 0.5 0.5 0 0 1 160 36 L 160 49 A 0.5 0.5 0 0 1 159.5 49.5 L 146.5 49.5 A 0.5 0.5 0 0 1 146 49 L 146 36 A 0.5 0.5 0 0 1 146.5 35.5 Z M 164.5 35.5 L 177.5 35.5 A 0.5 0.5 0 0 1 178 36 L 178 49 A 0.5 0.5 0 0 1 177.5 49.5 L 164.5 49.5 A 0.5 0.5 0 0 1 164 49 L 164 36 A 0.5 0.5 0 0 1 164.5 35.5 Z M 182.5 35.5 L 195.5 35.5 A 0.5 0.5 0 0 1 196 36 L 196 49 A 0.5 0.5 0 0 1 195.5 49.5 L 182.5 49.5 A 0.5 0.5 0 0 1 182 49 L 182 36 A 0.5 0.5 0 0 1 182.5 35.5 Z M 200.5 35.5 L 213.5 35.5 A 0.5 0.5 0 0 1 214 36 L 214 49 A 0.5 0.5 0 0 1 213.5 49.5 L 200.5 49.5 A 0.5 0.5 0 0 1 200 49 L 200 36 A 0.5 0.5 0 0 1 200.5 35.5 Z M 2.5 52.5 L 15.5 52.5 A 0.5 0.5 0 0 1 16 53 L 16 66 A 0.5 0.5 0 0 1 15.5 66.5 L 2.5 66.5 A 0.5 0.5 0 0 1 2 66 L 2 53 A 0.5 0.5 0 0 1 2.5 52.5 Z M 20.5 52.5 L 33.5 52.5 A 0.5 0.5 0 0 1 34 53 L 34 66 A 0.5 0.5 0 0 1 33.5 66.5 L 20.5 66.5 A 0.5 0.5 0 0 1 20 66 L 20 53 A 0.5 0.5 0 0 1 20.5 52.5 Z M 38.5 52.5 L 51.5 52.5 A 0.5 0.5 0 0 1 52 53 L 52 66 A 0.5 0.5 0 0 1 51.5 66.5 L 38.5 66.5 A 0.5 0.5 0 0 1 38 66 L 38 53 A 0.5 0.5 0 0 1 38.5 52.5 Z M 56.5 52.5 L 69.5 52.5 A 0.5 0.5 0 0 1 70 53 L 70 66 A 0.5 0.5 0 0 1 69.5 66.5 L 56.5 66.5 A 0.5 0.5 0 0 1 56 66 L 56 53 A 0.5 0.5 0 0 1 56.5 52.5 Z M 74.5 52.5 L 87.5 52.5 A 0.5 0.5 0 0 1 88 53 L 88 66 A 0.5 0.5 0 0 1 87.5 66.5 L 74.5 66.5 A 0.5 0.5 0 0 1 74 66 L 74 53 A 0.5 0.5 0 0 1 74.5 52.5 Z M 92.5 52.5 L 105.5 52.5 A 0.5 0.5 0 0 1 106 53 L 106 66 A 0.5 0.5 0 0 1 105.5 66.5 L 92.5 66.5 A 0.5 0.5 0 0 1 92 66 L 92 53 A 0.5 0.5 0 0 1 92.5 52.5 Z M 110.5 52.5 L 123.5 52.5 A 0.5 0.5 0 0 1 124 53 L 124 66 A 0.5 0.5 0 0 1 123.5 66.5 L 110.5 66.5 A 0.5 0.5 0 0 1 110 66 L 110 53 A 0.5 0.5 0 0 1 110.5 52.5 Z M 128.5 52.5 L 141.5 52.5 A 0.5 0.5 0 0 1 142 53 L 142 66 A 0.5 0.5 0 0 1 141.5 66.5 L 128.5 66.5 A 0.5 0.5 0 0 1 128 66 L 128 53 A 0.5 0.5 0 0 1 128.5 52.5 Z M 146.5 52.5 L 159.5 52.5 A 0.5 0.5 0 0 1 160 53 L 160 66 A 0.5 0.5 0 0 1 159.5 66.5 L 146.5 66.5 A 0.5 0.5 0 0 1 146 66 L 146 53 A 0.5 0.5 0 0 1 146.5 52.5 Z M 164.5 52.5 L 177.5 52.5 A 0.5 0.5 0 0 1 178 53 L 178 66 A 0.5 0.5 0 0 1 177.5 66.5 L 164.5 66.5 A 0.5 0.5 0 0 1 164 66 L 164 53 A 0.5 0.5 0 0 1 164.5 52.5 Z M 182.5 52.5 L 195.5 52.5 A 0.5 0.5 0 0 1 196 53 L 196 66 A 0.5 0.5 0 0 1 195.5 66.5 L 182.5 66.5 A 0.5 0.5 0 0 1 182 66 L 182 53 A 0.5 0.5 0 0 1 182.5 52.5 Z M 200.5 52.5 L 213.5 52.5 A 0.5 0.5 0 0 1 214 53 L 214 66 A 0.5 0.5 0 0 1 213.5 66.5 L 200.5 66.5 A 0.5 0.5 0 0 1 200 66 L 200 53 A 0.5 0.5 0 0 1 200.5 52.5 Z" vector-effect="non-scaling-stroke"/></g></svg>