M48
; DRILL file {KiCad (6.0.4-0)} date Thursday, July 14, 2022 at 08:21:05 pm
; FORMAT={-:-/ absolute / metric / decimal}
; #@! TF.CreationDate,2022-07-14T20:21:05-05:00
; #@! TF.GenerationSoftware,Kicad,Pcbnew,(6.0.4-0)
; #@! TF.FileFunction,NonPlated,1,2,NPTH
FMAT,2
METRIC
; #@! TA.AperFunction,NonPlated,NPTH,ComponentDrill
T1C0.991
; #@! TA.AperFunction,NonPlated,NPTH,ComponentDrill
T2C1.702
; #@! TA.AperFunction,NonPlated,NPTH,ComponentDrill
T3C2.200
; #@! TA.AperFunction,NonPlated,NPTH,ComponentDrill
T4C3.000
; #@! TA.AperFunction,NonPlated,NPTH,ComponentDrill
T5C3.429
%
G90
G05
T1
X27.22Y-16.8
X27.22Y-33.8
X27.22Y-50.8
X27.22Y-67.8
X45.22Y-16.8
X45.22Y-33.8
X45.22Y-50.8
X45.22Y-67.8
X63.22Y-16.8
X63.22Y-33.8
X63.22Y-50.8
X63.22Y-67.8
X81.22Y-16.8
X81.22Y-33.8
X81.22Y-50.8
X81.22Y-67.8
X99.22Y-16.8
X99.22Y-33.8
X99.22Y-50.8
X99.22Y-67.8
X153.22Y-16.8
X153.22Y-33.8
X153.22Y-50.8
X153.22Y-67.8
X171.22Y-16.8
X171.22Y-33.8
X171.22Y-50.8
X171.22Y-67.8
X189.22Y-16.8
X189.22Y-33.8
X189.22Y-50.8
X189.22Y-67.8
X207.22Y-16.8
X207.22Y-33.8
X207.22Y-50.8
X207.22Y-67.8
X225.22Y-16.8
X225.22Y-33.8
X225.22Y-50.8
X225.22Y-67.8
T2
X16.5Y-21.0
X16.5Y-38.0
X16.5Y-55.0
X16.5Y-72.0
X27.5Y-21.0
X27.5Y-38.0
X27.5Y-55.0
X27.5Y-72.0
X34.5Y-21.0
X34.5Y-38.0
X34.5Y-55.0
X34.5Y-72.0
X45.5Y-21.0
X45.5Y-38.0
X45.5Y-55.0
X45.5Y-72.0
X52.5Y-21.0
X52.5Y-38.0
X52.5Y-55.0
X52.5Y-72.0
X63.5Y-21.0
X63.5Y-38.0
X63.5Y-55.0
X63.5Y-72.0
X70.5Y-21.0
X70.5Y-38.0
X70.5Y-55.0
X70.5Y-72.0
X81.5Y-21.0
X81.5Y-38.0
X81.5Y-55.0
X81.5Y-72.0
X88.5Y-21.0
X88.5Y-38.0
X88.5Y-55.0
X88.5Y-72.0
X99.5Y-21.0
X99.5Y-38.0
X99.5Y-55.0
X99.5Y-72.0
X142.5Y-21.0
X142.5Y-38.0
X142.5Y-55.0
X142.5Y-72.0
X153.5Y-21.0
X153.5Y-38.0
X153.5Y-55.0
X153.5Y-72.0
X160.5Y-21.0
X160.5Y-38.0
X160.5Y-55.0
X160.5Y-72.0
X171.5Y-21.0
X171.5Y-38.0
X171.5Y-55.0
X171.5Y-72.0
X178.5Y-21.0
X178.5Y-38.0
X178.5Y-55.0
X178.5Y-72.0
X189.5Y-21.0
X189.5Y-38.0
X189.5Y-55.0
X189.5Y-72.0
X196.5Y-21.0
X196.5Y-38.0
X196.5Y-55.0
X196.5Y-72.0
X207.5Y-21.0
X207.5Y-38.0
X207.5Y-55.0
X207.5Y-72.0
X214.5Y-21.0
X214.5Y-38.0
X214.5Y-55.0
X214.5Y-72.0
X225.5Y-21.0
X225.5Y-38.0
X225.5Y-55.0
X225.5Y-72.0
T3
X31.0Y-29.5
X31.0Y-63.5
X85.0Y-46.5
X157.0Y-46.5
X211.0Y-29.5
X211.0Y-63.5
T4
X17.0Y-24.75
X17.0Y-41.75
X17.0Y-58.75
X17.0Y-75.75
X22.0Y-26.95
X22.0Y-43.95
X22.0Y-60.95
X22.0Y-77.95
X35.0Y-24.75
X35.0Y-41.75
X35.0Y-58.75
X35.0Y-75.75
X40.0Y-26.95
X40.0Y-43.95
X40.0Y-60.95
X40.0Y-77.95
X53.0Y-24.75
X53.0Y-41.75
X53.0Y-58.75
X53.0Y-75.75
X58.0Y-26.95
X58.0Y-43.95
X58.0Y-60.95
X58.0Y-77.95
X71.0Y-24.75
X71.0Y-41.75
X71.0Y-58.75
X71.0Y-75.75
X76.0Y-26.95
X76.0Y-43.95
X76.0Y-60.95
X76.0Y-77.95
X89.0Y-24.75
X89.0Y-41.75
X89.0Y-58.75
X89.0Y-75.75
X94.0Y-26.95
X94.0Y-43.95
X94.0Y-60.95
X94.0Y-77.95
X143.0Y-24.75
X143.0Y-41.75
X143.0Y-58.75
X143.0Y-75.75
X148.0Y-26.95
X148.0Y-43.95
X148.0Y-60.95
X148.0Y-77.95
X161.0Y-24.75
X161.0Y-41.75
X161.0Y-58.75
X161.0Y-75.75
X166.0Y-26.95
X166.0Y-43.95
X166.0Y-60.95
X166.0Y-77.95
X179.0Y-24.75
X179.0Y-41.75
X179.0Y-58.75
X179.0Y-75.75
X184.0Y-26.95
X184.0Y-43.95
X184.0Y-60.95
X184.0Y-77.95
X197.0Y-24.75
X197.0Y-41.75
X197.0Y-58.75
X197.0Y-75.75
X202.0Y-26.95
X202.0Y-43.95
X202.0Y-60.95
X202.0Y-77.95
X215.0Y-24.75
X215.0Y-41.75
X215.0Y-58.75
X215.0Y-75.75
X220.0Y-26.95
X220.0Y-43.95
X220.0Y-60.95
X220.0Y-77.95
T5
X22.0Y-21.0
X22.0Y-38.0
X22.0Y-55.0
X22.0Y-72.0
X40.0Y-21.0
X40.0Y-38.0
X40.0Y-55.0
X40.0Y-72.0
X58.0Y-21.0
X58.0Y-38.0
X58.0Y-55.0
X58.0Y-72.0
X76.0Y-21.0
X76.0Y-38.0
X76.0Y-55.0
X76.0Y-72.0
X94.0Y-21.0
X94.0Y-38.0
X94.0Y-55.0
X94.0Y-72.0
X148.0Y-21.0
X148.0Y-38.0
X148.0Y-55.0
X148.0Y-72.0
X166.0Y-21.0
X166.0Y-38.0
X166.0Y-55.0
X166.0Y-72.0
X184.0Y-21.0
X184.0Y-38.0
X184.0Y-55.0
X184.0Y-72.0
X202.0Y-21.0
X202.0Y-38.0
X202.0Y-55.0
X202.0Y-72.0
X220.0Y-21.0
X220.0Y-38.0
X220.0Y-55.0
X220.0Y-72.0
T0
M30
