M48
; DRILL file {KiCad (6.0.4-0)} date Thursday, July 14, 2022 at 08:21:05 pm
; FORMAT={-:-/ absolute / metric / decimal}
; #@! TF.CreationDate,2022-07-14T20:21:05-05:00
; #@! TF.GenerationSoftware,Kicad,Pcbnew,(6.0.4-0)
; #@! TF.FileFunction,Plated,1,2,PTH
FMAT,2
METRIC
; #@! TA.AperFunction,Plated,PTH,ViaDrill
T1C0.400
; #@! TA.AperFunction,Plated,PTH,ComponentDrill
T2C0.950
; #@! TA.AperFunction,Plated,PTH,ComponentDrill
T3C1.020
; #@! TA.AperFunction,Plated,PTH,ComponentDrill
T4C2.200
; #@! TA.AperFunction,Plated,PTH,ComponentDrill
T5C3.200
%
G90
G05
T1
X31.75Y-27.0
X31.75Y-39.5
X31.75Y-44.0
X31.75Y-56.25
X31.75Y-61.25
X31.75Y-73.0
X49.75Y-27.0
X49.75Y-37.0
X49.75Y-39.5
X49.75Y-44.0
X49.75Y-56.75
X49.75Y-61.0
X49.75Y-73.5
X67.75Y-26.75
X67.75Y-38.75
X67.75Y-44.0
X67.75Y-56.5
X67.75Y-60.75
X67.75Y-73.75
X85.75Y-26.75
X85.75Y-39.25
X85.75Y-56.5
X85.75Y-60.75
X85.75Y-73.5
X86.0Y-43.5
X100.75Y-52.75
X100.83Y-74.609
X101.474Y-55.25
X101.488Y-76.15
X101.75Y-75.0
X102.0Y-67.75
X102.102Y-66.658
X102.301Y-63.75
X103.025Y-46.5
X103.025Y-66.275
X103.75Y-29.5
X104.474Y-57.0
X104.5Y-50.25
X104.5Y-66.25
X104.75Y-24.75
X105.5Y-68.598
X106.5Y-69.323
X106.775Y-62.75
X107.5Y-65.5
X107.755Y-60.25
X108.48Y-64.23
X108.5Y-57.75
X111.0Y-68.75
X111.75Y-64.23
X111.75Y-71.0
X114.5Y-71.0
X117.0Y-65.5
X122.25Y-69.5
X124.75Y-75.75
X127.5Y-75.0
X135.13Y-37.38
X135.326Y-40.0
X135.326Y-45.714
X136.051Y-61.0
X136.75Y-29.75
X136.775Y-65.75
X137.5Y-43.5
X137.775Y-65.75
X138.775Y-65.75
X138.863Y-61.137
X139.601Y-45.899
X139.774Y-65.75
X140.5Y-26.75
X140.5Y-39.5
X140.5Y-44.0
X140.5Y-56.75
X140.5Y-60.5
X140.5Y-73.5
X141.5Y-67.75
X141.786Y-73.648
X157.75Y-26.75
X157.75Y-39.75
X157.75Y-43.75
X157.75Y-56.75
X157.75Y-61.0
X157.75Y-73.75
X175.75Y-26.75
X175.75Y-39.75
X175.75Y-43.75
X175.75Y-56.5
X175.75Y-61.0
X175.75Y-73.5
X193.75Y-26.75
X193.75Y-39.5
X193.75Y-43.75
X193.75Y-56.5
X193.75Y-60.5
X193.75Y-73.5
X211.75Y-26.75
X211.75Y-39.5
X211.75Y-43.75
X211.75Y-56.75
X211.75Y-60.75
X211.75Y-73.75
T2
X112.11Y-72.95
X114.65Y-72.95
X117.19Y-72.95
X119.73Y-72.95
X122.27Y-72.95
X124.81Y-72.95
X127.35Y-72.95
X129.89Y-72.95
T3
X112.11Y-14.52
X112.11Y-17.06
X112.11Y-19.6
X112.11Y-22.14
X112.11Y-24.68
X112.11Y-27.22
X112.11Y-29.76
X112.11Y-32.3
X112.11Y-34.84
X112.11Y-37.38
X112.11Y-39.92
X112.11Y-42.46
X112.11Y-45.0
X112.11Y-47.54
X112.11Y-50.08
X112.11Y-52.62
X112.11Y-55.16
X112.11Y-57.7
X112.11Y-60.24
X112.11Y-62.78
X129.89Y-14.52
X129.89Y-17.06
X129.89Y-19.6
X129.89Y-22.14
X129.89Y-24.68
X129.89Y-27.22
X129.89Y-29.76
X129.89Y-32.3
X129.89Y-34.84
X129.89Y-37.38
X129.89Y-39.92
X129.89Y-42.46
X129.89Y-45.0
X129.89Y-47.54
X129.89Y-50.08
X129.89Y-52.62
X129.89Y-55.16
X129.89Y-57.7
X129.89Y-60.24
X129.89Y-62.78
T4
X106.0Y-15.0
X106.0Y-78.0
X136.0Y-15.0
X136.0Y-78.0
T5
X106.75Y-20.45
X106.75Y-72.45
X135.25Y-20.45
X135.25Y-72.45
T0
M30
