M48
METRIC,TZ
T1C0.991
T2C1.702
T3C2.200
T4C3.000
T5C3.429
%
G90
G05
T1
X27220Y-16800
X27220Y-33800
X27220Y-50800
X27220Y-67800
X45220Y-16800
X45220Y-33800
X45220Y-50800
X45220Y-67800
X63220Y-16800
X63220Y-33800
X63220Y-50800
X63220Y-67800
X81220Y-16800
X81220Y-33800
X81220Y-50800
X81220Y-67800
X99220Y-16800
X99220Y-33800
X99220Y-50800
X99220Y-67800
X153220Y-16800
X153220Y-33800
X153220Y-50800
X153220Y-67800
X171220Y-16800
X171220Y-33800
X171220Y-50800
X171220Y-67800
X189220Y-16800
X189220Y-33800
X189220Y-50800
X189220Y-67800
X207220Y-16800
X207220Y-33800
X207220Y-50800
X207220Y-67800
X225220Y-16800
X225220Y-33800
X225220Y-50800
X225220Y-67800
T2
X16500Y-21000
X16500Y-38000
X16500Y-55000
X16500Y-72000
X27500Y-21000
X27500Y-38000
X27500Y-55000
X27500Y-72000
X34500Y-21000
X34500Y-38000
X34500Y-55000
X34500Y-72000
X45500Y-21000
X45500Y-38000
X45500Y-55000
X45500Y-72000
X52500Y-21000
X52500Y-38000
X52500Y-55000
X52500Y-72000
X63500Y-21000
X63500Y-38000
X63500Y-55000
X63500Y-72000
X70500Y-21000
X70500Y-38000
X70500Y-55000
X70500Y-72000
X81500Y-21000
X81500Y-38000
X81500Y-55000
X81500Y-72000
X88500Y-21000
X88500Y-38000
X88500Y-55000
X88500Y-72000
X99500Y-21000
X99500Y-38000
X99500Y-55000
X99500Y-72000
X142500Y-21000
X142500Y-38000
X142500Y-55000
X142500Y-72000
X153500Y-21000
X153500Y-38000
X153500Y-55000
X153500Y-72000
X160500Y-21000
X160500Y-38000
X160500Y-55000
X160500Y-72000
X171500Y-21000
X171500Y-38000
X171500Y-55000
X171500Y-72000
X178500Y-21000
X178500Y-38000
X178500Y-55000
X178500Y-72000
X189500Y-21000
X189500Y-38000
X189500Y-55000
X189500Y-72000
X196500Y-21000
X196500Y-38000
X196500Y-55000
X196500Y-72000
X207500Y-21000
X207500Y-38000
X207500Y-55000
X207500Y-72000
X214500Y-21000
X214500Y-38000
X214500Y-55000
X214500Y-72000
X225500Y-21000
X225500Y-38000
X225500Y-55000
X225500Y-72000
T3
X31000Y-29500
X31000Y-63500
X85000Y-46500
X157000Y-46500
X211000Y-29500
X211000Y-63500
T4
X17000Y-24750
X17000Y-41750
X17000Y-58750
X17000Y-75750
X22000Y-26950
X22000Y-43950
X22000Y-60950
X22000Y-77950
X35000Y-24750
X35000Y-41750
X35000Y-58750
X35000Y-75750
X40000Y-26950
X40000Y-43950
X40000Y-60950
X40000Y-77950
X53000Y-24750
X53000Y-41750
X53000Y-58750
X53000Y-75750
X58000Y-26950
X58000Y-43950
X58000Y-60950
X58000Y-77950
X71000Y-24750
X71000Y-41750
X71000Y-58750
X71000Y-75750
X76000Y-26950
X76000Y-43950
X76000Y-60950
X76000Y-77950
X89000Y-24750
X89000Y-41750
X89000Y-58750
X89000Y-75750
X94000Y-26950
X94000Y-43950
X94000Y-60950
X94000Y-77950
X143000Y-24750
X143000Y-41750
X143000Y-58750
X143000Y-75750
X148000Y-26950
X148000Y-43950
X148000Y-60950
X148000Y-77950
X161000Y-24750
X161000Y-41750
X161000Y-58750
X161000Y-75750
X166000Y-26950
X166000Y-43950
X166000Y-60950
X166000Y-77950
X179000Y-24750
X179000Y-41750
X179000Y-58750
X179000Y-75750
X184000Y-26950
X184000Y-43950
X184000Y-60950
X184000Y-77950
X197000Y-24750
X197000Y-41750
X197000Y-58750
X197000Y-75750
X202000Y-26950
X202000Y-43950
X202000Y-60950
X202000Y-77950
X215000Y-24750
X215000Y-41750
X215000Y-58750
X215000Y-75750
X220000Y-26950
X220000Y-43950
X220000Y-60950
X220000Y-77950
T5
X22000Y-21000
X22000Y-38000
X22000Y-55000
X22000Y-72000
X40000Y-21000
X40000Y-38000
X40000Y-55000
X40000Y-72000
X58000Y-21000
X58000Y-38000
X58000Y-55000
X58000Y-72000
X76000Y-21000
X76000Y-38000
X76000Y-55000
X76000Y-72000
X94000Y-21000
X94000Y-38000
X94000Y-55000
X94000Y-72000
X148000Y-21000
X148000Y-38000
X148000Y-55000
X148000Y-72000
X166000Y-21000
X166000Y-38000
X166000Y-55000
X166000Y-72000
X184000Y-21000
X184000Y-38000
X184000Y-55000
X184000Y-72000
X202000Y-21000
X202000Y-38000
X202000Y-55000
X202000Y-72000
X220000Y-21000
X220000Y-38000
X220000Y-55000
X220000Y-72000
T0
M30
