G04 #@! TF.GenerationSoftware,KiCad,Pcbnew,(6.0.4-0)*
G04 #@! TF.CreationDate,2022-07-23T18:47:03-05:00*
G04 #@! TF.ProjectId,keezyboost40,6b65657a-7962-46f6-9f73-7434302e6b69,rev?*
G04 #@! TF.SameCoordinates,Original*
G04 #@! TF.FileFunction,Paste,Bot*
G04 #@! TF.FilePolarity,Positive*
%FSLAX46Y46*%
G04 Gerber Fmt 4.6, Leading zero omitted, Abs format (unit mm)*
G04 Created by KiCad (PCBNEW (6.0.4-0)) date 2022-07-23 18:47:03*
%MOMM*%
%LPD*%
G01*
G04 APERTURE LIST*
%ADD10R,2.600000X2.600000*%
%ADD11R,1.200000X0.900000*%
G04 APERTURE END LIST*
D10*
X205275000Y-60950000D03*
X193725000Y-58750000D03*
X61275000Y-43950000D03*
X49725000Y-41750000D03*
X97275000Y-26950000D03*
X85725000Y-24750000D03*
X79275000Y-77950000D03*
X67725000Y-75750000D03*
X151275000Y-77950000D03*
X139725000Y-75750000D03*
X187275000Y-26950000D03*
X175725000Y-24750000D03*
X25275000Y-26950000D03*
X13725000Y-24750000D03*
X43275000Y-43950000D03*
X31725000Y-41750000D03*
X79275000Y-43950000D03*
X67725000Y-41750000D03*
X43275000Y-77950000D03*
X31725000Y-75750000D03*
X223275000Y-43950000D03*
X211725000Y-41750000D03*
X25275000Y-60950000D03*
X13725000Y-58750000D03*
X43275000Y-26950000D03*
X31725000Y-24750000D03*
X97275000Y-77950000D03*
X85725000Y-75750000D03*
X205275000Y-26950000D03*
X193725000Y-24750000D03*
X205275000Y-77950000D03*
X193725000Y-75750000D03*
X223275000Y-60950000D03*
X211725000Y-58750000D03*
X25275000Y-43950000D03*
X13725000Y-41750000D03*
X61275000Y-60950000D03*
X49725000Y-58750000D03*
X205275000Y-43950000D03*
X193725000Y-41750000D03*
X151275000Y-60950000D03*
X139725000Y-58750000D03*
X187275000Y-43950000D03*
X175725000Y-41750000D03*
X187275000Y-77950000D03*
X175725000Y-75750000D03*
X61275000Y-77950000D03*
X49725000Y-75750000D03*
X223275000Y-77950000D03*
X211725000Y-75750000D03*
X223275000Y-26950000D03*
X211725000Y-24750000D03*
X97275000Y-43950000D03*
X85725000Y-41750000D03*
X169275000Y-60950000D03*
X157725000Y-58750000D03*
X61275000Y-26950000D03*
X49725000Y-24750000D03*
X25275000Y-77950000D03*
X13725000Y-75750000D03*
X151275000Y-26950000D03*
X139725000Y-24750000D03*
X169275000Y-77950000D03*
X157725000Y-75750000D03*
X169275000Y-43950000D03*
X157725000Y-41750000D03*
X169275000Y-26950000D03*
X157725000Y-24750000D03*
X79275000Y-26950000D03*
X67725000Y-24750000D03*
X187275000Y-60950000D03*
X175725000Y-58750000D03*
X79275000Y-60950000D03*
X67725000Y-58750000D03*
X43275000Y-60950000D03*
X31725000Y-58750000D03*
X97275000Y-60950000D03*
X85725000Y-58750000D03*
X151275000Y-43950000D03*
X139725000Y-41750000D03*
D11*
X225775100Y-63450000D03*
X225775100Y-60150000D03*
X207775100Y-29450000D03*
X207775100Y-26150000D03*
X63775100Y-46450000D03*
X63775100Y-43150000D03*
X171775100Y-75450000D03*
X171775100Y-78750000D03*
X27775100Y-63450000D03*
X27775100Y-60150000D03*
X99775100Y-75450000D03*
X99775100Y-78750000D03*
X99775100Y-46450000D03*
X99775100Y-43150000D03*
X64100000Y-75450000D03*
X64100000Y-78750000D03*
X63775100Y-29450000D03*
X63775100Y-26150000D03*
X27775100Y-29450000D03*
X27775100Y-26150000D03*
X207775100Y-75450000D03*
X207775100Y-78750000D03*
X45775100Y-63450000D03*
X45775100Y-60150000D03*
X153775100Y-46450000D03*
X153775100Y-43150000D03*
X45775100Y-29450000D03*
X45775100Y-26150000D03*
X225775100Y-46450000D03*
X225775100Y-43150000D03*
X81775100Y-29450000D03*
X81775100Y-26150000D03*
X208100000Y-63450000D03*
X208100000Y-60150000D03*
X153775100Y-75450000D03*
X153775100Y-78750000D03*
X99775100Y-29450000D03*
X99775100Y-26150000D03*
X27775100Y-46450000D03*
X27775100Y-43150000D03*
X81775100Y-63450000D03*
X81775100Y-60150000D03*
X226100000Y-29450000D03*
X226100000Y-26150000D03*
X46100000Y-75450000D03*
X46100000Y-78750000D03*
X82100000Y-46450000D03*
X82100000Y-43150000D03*
X171775100Y-46450000D03*
X171775100Y-43150000D03*
X189775100Y-46450000D03*
X189775100Y-43150000D03*
X171775100Y-29450000D03*
X171775100Y-26150000D03*
X153775100Y-29450000D03*
X153775100Y-26150000D03*
X171775100Y-63450000D03*
X171775100Y-60150000D03*
X63775100Y-63450000D03*
X63775100Y-60150000D03*
X189775100Y-75450000D03*
X189775100Y-78750000D03*
X225775100Y-75450000D03*
X225775100Y-78750000D03*
X154100000Y-63450000D03*
X154100000Y-60150000D03*
X99775100Y-63450000D03*
X99775100Y-60150000D03*
X45775100Y-46450000D03*
X45775100Y-43150000D03*
X27775100Y-75450000D03*
X27775100Y-78750000D03*
X189925100Y-29450000D03*
X189925100Y-26150000D03*
X81775100Y-75450000D03*
X81775100Y-78750000D03*
X207775100Y-46450000D03*
X207775100Y-43150000D03*
X190100000Y-63450000D03*
X190100000Y-60150000D03*
M02*
