G04 #@! TF.GenerationSoftware,KiCad,Pcbnew,(6.0.4-0)*
G04 #@! TF.CreationDate,2022-07-12T00:36:11-05:00*
G04 #@! TF.ProjectId,keezyboost40,6b65657a-7962-46f6-9f73-7434302e6b69,rev?*
G04 #@! TF.SameCoordinates,Original*
G04 #@! TF.FileFunction,Copper,L1,Top*
G04 #@! TF.FilePolarity,Positive*
%FSLAX46Y46*%
G04 Gerber Fmt 4.6, Leading zero omitted, Abs format (unit mm)*
G04 Created by KiCad (PCBNEW (6.0.4-0)) date 2022-07-12 00:36:11*
%MOMM*%
%LPD*%
G01*
G04 APERTURE LIST*
G04 #@! TA.AperFunction,ComponentPad*
%ADD10C,3.800000*%
G04 #@! TD*
G04 #@! TA.AperFunction,ComponentPad*
%ADD11C,4.000000*%
G04 #@! TD*
G04 #@! TA.AperFunction,ComponentPad*
%ADD12R,1.650000X1.650000*%
G04 #@! TD*
G04 #@! TA.AperFunction,ComponentPad*
%ADD13C,1.650000*%
G04 #@! TD*
G04 #@! TA.AperFunction,ComponentPad*
%ADD14O,1.700000X1.700000*%
G04 #@! TD*
G04 #@! TA.AperFunction,SMDPad,CuDef*
%ADD15R,3.500000X1.700000*%
G04 #@! TD*
G04 #@! TA.AperFunction,ComponentPad*
%ADD16R,1.700000X1.700000*%
G04 #@! TD*
G04 #@! TA.AperFunction,ViaPad*
%ADD17C,0.800000*%
G04 #@! TD*
G04 #@! TA.AperFunction,Conductor*
%ADD18C,0.250000*%
G04 #@! TD*
G04 APERTURE END LIST*
D10*
X106000000Y-78000000D03*
X136000000Y-78000000D03*
D11*
X106750000Y-72450000D03*
X106750000Y-20450000D03*
X135250000Y-20450000D03*
X135250000Y-72450000D03*
D12*
X112110000Y-72950000D03*
D13*
X114650000Y-72950000D03*
X117190000Y-72950000D03*
X119730000Y-72950000D03*
X122270000Y-72950000D03*
X124810000Y-72950000D03*
X127350000Y-72950000D03*
X129890000Y-72950000D03*
D10*
X106000000Y-15000000D03*
X136000000Y-15000000D03*
D14*
X129890000Y-14520000D03*
D15*
X130790000Y-14520000D03*
D14*
X129890000Y-17060000D03*
D15*
X130790000Y-17060000D03*
D16*
X129890000Y-19600000D03*
D15*
X130790000Y-19600000D03*
D14*
X129890000Y-22140000D03*
D15*
X130790000Y-22140000D03*
X130790000Y-24680000D03*
D14*
X129890000Y-24680000D03*
D15*
X130790000Y-27220000D03*
D14*
X129890000Y-27220000D03*
X129890000Y-29760000D03*
D15*
X130790000Y-29760000D03*
D16*
X129890000Y-32300000D03*
D15*
X130790000Y-32300000D03*
D14*
X129890000Y-34840000D03*
D15*
X130790000Y-34840000D03*
D14*
X129890000Y-37380000D03*
D15*
X130790000Y-37380000D03*
D14*
X129890000Y-39920000D03*
D15*
X130790000Y-39920000D03*
X130790000Y-42460000D03*
D14*
X129890000Y-42460000D03*
D16*
X129890000Y-45000000D03*
D15*
X130790000Y-45000000D03*
X130790000Y-47540000D03*
D14*
X129890000Y-47540000D03*
X129890000Y-50080000D03*
D15*
X130790000Y-50080000D03*
X130790000Y-52620000D03*
D14*
X129890000Y-52620000D03*
D15*
X130790000Y-55160000D03*
D14*
X129890000Y-55160000D03*
D15*
X130790000Y-57700000D03*
D16*
X129890000Y-57700000D03*
D15*
X130790000Y-60240000D03*
D14*
X129890000Y-60240000D03*
X129890000Y-62780000D03*
D15*
X130790000Y-62780000D03*
X111210000Y-62780000D03*
D14*
X112110000Y-62780000D03*
X112110000Y-60240000D03*
D15*
X111210000Y-60240000D03*
X111210000Y-57700000D03*
D16*
X112110000Y-57700000D03*
D15*
X111210000Y-55160000D03*
D14*
X112110000Y-55160000D03*
D15*
X111210000Y-52620000D03*
D14*
X112110000Y-52620000D03*
D15*
X111210000Y-50080000D03*
D14*
X112110000Y-50080000D03*
D15*
X111210000Y-47540000D03*
D14*
X112110000Y-47540000D03*
D16*
X112110000Y-45000000D03*
D15*
X111210000Y-45000000D03*
D14*
X112110000Y-42460000D03*
D15*
X111210000Y-42460000D03*
X111210000Y-39920000D03*
D14*
X112110000Y-39920000D03*
D15*
X111210000Y-37380000D03*
D14*
X112110000Y-37380000D03*
D15*
X111210000Y-34840000D03*
D14*
X112110000Y-34840000D03*
D16*
X112110000Y-32300000D03*
D15*
X111210000Y-32300000D03*
X111210000Y-29760000D03*
D14*
X112110000Y-29760000D03*
X112110000Y-27220000D03*
D15*
X111210000Y-27220000D03*
X111210000Y-24680000D03*
D14*
X112110000Y-24680000D03*
D15*
X111210000Y-22140000D03*
D14*
X112110000Y-22140000D03*
D16*
X112110000Y-19600000D03*
D15*
X111210000Y-19600000D03*
X111210000Y-17060000D03*
D14*
X112110000Y-17060000D03*
X112110000Y-14520000D03*
D15*
X111210000Y-14520000D03*
D17*
X111750000Y-71000000D03*
X111750000Y-64229502D03*
X114500000Y-71000000D03*
X108479502Y-64229502D03*
X108500000Y-57750000D03*
X136775500Y-65750000D03*
X136750000Y-29750000D03*
X104500000Y-66250000D03*
X103750000Y-29500000D03*
X103025500Y-46500000D03*
X103025500Y-66275500D03*
X137500000Y-43500000D03*
X137775003Y-65750000D03*
X135130000Y-37380000D03*
X102301000Y-63750000D03*
X102102081Y-66657994D03*
X138862989Y-61137011D03*
X138774506Y-65750000D03*
X136051000Y-61000000D03*
X139600689Y-45899311D03*
X139774009Y-65750000D03*
X141785908Y-73648385D03*
X135326500Y-40000000D03*
X101750000Y-75000000D03*
X135326500Y-45714386D03*
X141500000Y-67750000D03*
X102000000Y-67750000D03*
X104750000Y-24750000D03*
X111000000Y-68750000D03*
X105500000Y-68598051D03*
X31750000Y-61250000D03*
X31750000Y-56250000D03*
X31750000Y-39500000D03*
X31750000Y-44000000D03*
X31750000Y-27000000D03*
X31750000Y-73000000D03*
X49750000Y-56750000D03*
X49750000Y-44000000D03*
X49750000Y-39500000D03*
X49750000Y-61000000D03*
X49750000Y-27000000D03*
X49750000Y-73500000D03*
X49750000Y-37000000D03*
X67750000Y-56500000D03*
X67750000Y-44000000D03*
X67750000Y-73750000D03*
X67750000Y-38750000D03*
X67750000Y-60750000D03*
X67750000Y-26750000D03*
X85750000Y-26750000D03*
X104500000Y-50250000D03*
X85750000Y-39250000D03*
X86000000Y-43500000D03*
X85750000Y-60750000D03*
X104474500Y-57000000D03*
X85750000Y-73500000D03*
X85750000Y-56500000D03*
X140500000Y-73500000D03*
X140500000Y-26750000D03*
X140500000Y-60500000D03*
X140500000Y-56750000D03*
X140500000Y-39500000D03*
X140500000Y-44000000D03*
X157750000Y-73750000D03*
X157750000Y-39750000D03*
X157750000Y-26750000D03*
X157750000Y-61000000D03*
X157750000Y-56750000D03*
X157750000Y-43750000D03*
X175750000Y-61000000D03*
X175750000Y-26750000D03*
X175750000Y-73500000D03*
X175750000Y-56500000D03*
X175750000Y-43750000D03*
X175750000Y-39750000D03*
X193750000Y-60500000D03*
X193750000Y-56500000D03*
X193750000Y-43750000D03*
X193750000Y-26750000D03*
X193750000Y-73500000D03*
X193750000Y-39500000D03*
X211750000Y-39500000D03*
X211750000Y-56750000D03*
X211750000Y-73750000D03*
X211750000Y-26750000D03*
X211750000Y-43750000D03*
X211750000Y-60750000D03*
X106500000Y-69322551D03*
X106775500Y-62750000D03*
X122250000Y-69500000D03*
X107500000Y-65500000D03*
X107755002Y-60250000D03*
X117000000Y-65500000D03*
X101474500Y-55250000D03*
X127500000Y-75000000D03*
X100829952Y-74609472D03*
X124750000Y-75750000D03*
X100750000Y-52750000D03*
X101488084Y-76149661D03*
D18*
X114550000Y-71000000D02*
X114500000Y-71000000D01*
X114650000Y-71100000D02*
X114550000Y-71000000D01*
X114650000Y-72950000D02*
X114650000Y-71100000D01*
X108479502Y-64229502D02*
X108479502Y-57770498D01*
X111750000Y-71000000D02*
X111750000Y-64229502D01*
X108479502Y-57770498D02*
X108500000Y-57750000D01*
X103750000Y-65500000D02*
X104500000Y-66250000D01*
X103750000Y-29500000D02*
X103750000Y-65500000D01*
X136775500Y-29775500D02*
X136750000Y-29750000D01*
X136775500Y-65750000D02*
X136775500Y-29775500D01*
X103025500Y-66275500D02*
X103025500Y-46500000D01*
X137775003Y-43775003D02*
X137500000Y-43500000D01*
X137775003Y-65750000D02*
X137775003Y-43775003D01*
X138774506Y-65750000D02*
X138774506Y-61225494D01*
X136051000Y-38301000D02*
X135130000Y-37380000D01*
X102301000Y-63750000D02*
X102301000Y-66459075D01*
X102301000Y-66459075D02*
X102102081Y-66657994D01*
X136051000Y-61000000D02*
X136051000Y-38301000D01*
X138774506Y-61225494D02*
X138862989Y-61137011D01*
X101750000Y-75000000D02*
X101750000Y-68000000D01*
X135326500Y-45714386D02*
X135326500Y-40000000D01*
X141274579Y-73137056D02*
X141785908Y-73648385D01*
X101750000Y-68000000D02*
X102000000Y-67750000D01*
X139774009Y-65750000D02*
X139774009Y-46072631D01*
X141500000Y-67750000D02*
X141274579Y-67975421D01*
X141274579Y-67975421D02*
X141274579Y-73137056D01*
X139774009Y-46072631D02*
X139600689Y-45899311D01*
X105224511Y-68322562D02*
X105500000Y-68598051D01*
X111000000Y-68750000D02*
X111000000Y-71840000D01*
X111000000Y-71840000D02*
X112110000Y-72950000D01*
X105224511Y-25224511D02*
X105224511Y-68322562D01*
X104750000Y-24750000D02*
X105224511Y-25224511D01*
X32474521Y-38775479D02*
X31750000Y-39500000D01*
X32474521Y-72275479D02*
X31750000Y-73000000D01*
X31750000Y-56250000D02*
X31750000Y-44000000D01*
X32474521Y-27724521D02*
X32474521Y-38775479D01*
X31750000Y-27000000D02*
X32474521Y-27724521D01*
X31750000Y-61250000D02*
X32474521Y-61974521D01*
X32474521Y-61974521D02*
X32474521Y-72275479D01*
X49750000Y-44000000D02*
X49750000Y-56750000D01*
X49750000Y-37000000D02*
X49750000Y-39500000D01*
X49750000Y-27000000D02*
X49750000Y-37000000D01*
X49750000Y-61000000D02*
X49750000Y-73500000D01*
X67750000Y-44000000D02*
X67750000Y-56500000D01*
X67750000Y-60750000D02*
X67750000Y-73750000D01*
X67750000Y-26750000D02*
X67750000Y-38750000D01*
X104474500Y-57000000D02*
X104474500Y-50275500D01*
X86474521Y-43974521D02*
X86474521Y-55775479D01*
X85750000Y-73500000D02*
X85750000Y-60750000D01*
X86000000Y-43500000D02*
X86474521Y-43974521D01*
X104474500Y-50275500D02*
X104500000Y-50250000D01*
X85750000Y-39250000D02*
X85750000Y-26750000D01*
X86474521Y-55775479D02*
X85750000Y-56500000D01*
X140500000Y-39500000D02*
X140500000Y-26750000D01*
X140500000Y-73500000D02*
X140500000Y-60500000D01*
X140500000Y-56750000D02*
X140500000Y-44000000D01*
X157750000Y-26750000D02*
X157750000Y-39750000D01*
X157750000Y-43750000D02*
X158474521Y-44474521D01*
X158474521Y-56025479D02*
X157750000Y-56750000D01*
X158474521Y-44474521D02*
X158474521Y-56025479D01*
X157750000Y-61000000D02*
X157750000Y-73750000D01*
X175750000Y-43750000D02*
X175750000Y-56500000D01*
X175750000Y-61000000D02*
X175750000Y-73500000D01*
X175750000Y-26750000D02*
X175750000Y-39750000D01*
X193750000Y-56500000D02*
X193750000Y-43750000D01*
X193750000Y-39500000D02*
X193750000Y-26750000D01*
X193750000Y-73500000D02*
X193750000Y-60500000D01*
X212474521Y-73025479D02*
X211750000Y-73750000D01*
X212474521Y-27474521D02*
X212474521Y-38775479D01*
X211750000Y-60750000D02*
X212474521Y-61474521D01*
X211750000Y-56750000D02*
X211750000Y-43750000D01*
X212474521Y-61474521D02*
X212474521Y-73025479D01*
X211750000Y-26750000D02*
X212474521Y-27474521D01*
X212474521Y-38775479D02*
X211750000Y-39500000D01*
X129890000Y-72950000D02*
X129890000Y-62780000D01*
X106500000Y-63025500D02*
X106775500Y-62750000D01*
X106500000Y-69322551D02*
X106500000Y-63025500D01*
X122250000Y-69500000D02*
X122270000Y-69520000D01*
X122270000Y-69520000D02*
X122270000Y-72950000D01*
X107500000Y-65500000D02*
X107500000Y-60505002D01*
X107500000Y-60505002D02*
X107755002Y-60250000D01*
X117190000Y-72950000D02*
X117190000Y-65690000D01*
X117190000Y-65690000D02*
X117000000Y-65500000D01*
X101474500Y-55250000D02*
X101250000Y-55474500D01*
X127500000Y-75000000D02*
X127500000Y-73100000D01*
X101250000Y-55474500D02*
X101250000Y-74000000D01*
X101250000Y-74000000D02*
X101250000Y-74189424D01*
X127500000Y-73100000D02*
X127350000Y-72950000D01*
X101250000Y-74189424D02*
X100829952Y-74609472D01*
X100000000Y-73233008D02*
X100750000Y-72483008D01*
X100000000Y-75411577D02*
X100738084Y-76149661D01*
X100000000Y-75411577D02*
X100000000Y-73233008D01*
X100738084Y-76149661D02*
X101488084Y-76149661D01*
X100750000Y-72483008D02*
X100750000Y-52750000D01*
X124810000Y-75690000D02*
X124810000Y-72950000D01*
X124750000Y-75750000D02*
X124810000Y-75690000D01*
M02*
