M48
METRIC,TZ
T1C0.400
T2C0.950
T3C1.020
T4C2.200
T5C3.200
%
G90
G05
T1
X31750Y-27000
X31750Y-39500
X31750Y-44000
X31750Y-56250
X31750Y-61250
X31750Y-73000
X49750Y-27000
X49750Y-37000
X49750Y-39500
X49750Y-44000
X49750Y-56750
X49750Y-61000
X49750Y-73500
X67750Y-26750
X67750Y-38750
X67750Y-44000
X67750Y-56500
X67750Y-60750
X67750Y-73750
X85750Y-26750
X85750Y-39250
X85750Y-56500
X85750Y-60750
X85750Y-73500
X86000Y-43500
X100750Y-52750
X100830Y-74609
X101474Y-55250
X101488Y-76150
X101750Y-75000
X102000Y-67750
X102102Y-66658
X102301Y-63750
X103026Y-46500
X103026Y-66276
X103750Y-29500
X104474Y-57000
X104500Y-50250
X104500Y-66250
X105500Y-25000
X105500Y-68598
X106500Y-69323
X106776Y-62750
X107500Y-65500
X107755Y-60250
X108480Y-64230
X108500Y-57750
X111000Y-68750
X111750Y-64230
X111750Y-71000
X114500Y-71000
X117000Y-65500
X120000Y-70500
X122250Y-69500
X124750Y-75750
X127500Y-75000
X133500Y-60500
X133500Y-70500
X135130Y-37380
X135326Y-40000
X135326Y-45714
X136051Y-61000
X136750Y-29750
X136776Y-65750
X137500Y-43500
X137775Y-65750
X138775Y-65750
X138863Y-61137
X138906Y-50006
X138906Y-56356
X139601Y-45899
X139774Y-65750
X140500Y-26750
X140500Y-39500
X140500Y-44000
X140500Y-56750
X140500Y-60500
X140500Y-73500
X141500Y-67750
X141786Y-73648
X150813Y-51594
X150813Y-57150
X157750Y-26750
X157750Y-39750
X157750Y-43750
X157750Y-56750
X157750Y-61000
X157750Y-73750
X175750Y-26750
X175750Y-39750
X175750Y-43750
X175750Y-56500
X175750Y-61000
X175750Y-73500
X193750Y-26750
X193750Y-39500
X193750Y-43750
X193750Y-56500
X193750Y-60500
X193750Y-73500
X211750Y-26750
X211750Y-39500
X211750Y-43750
X211750Y-56750
X211750Y-60750
X211750Y-73750
T2
X112110Y-72950
X114650Y-72950
X117190Y-72950
X119730Y-72950
X122270Y-72950
X124810Y-72950
X127350Y-72950
X129890Y-72950
T3
X112110Y-14520
X112110Y-17060
X112110Y-19600
X112110Y-22140
X112110Y-24680
X112110Y-27220
X112110Y-29760
X112110Y-32300
X112110Y-34840
X112110Y-37380
X112110Y-39920
X112110Y-42460
X112110Y-45000
X112110Y-47540
X112110Y-50080
X112110Y-52620
X112110Y-55160
X112110Y-57700
X112110Y-60240
X112110Y-62780
X129890Y-14520
X129890Y-17060
X129890Y-19600
X129890Y-22140
X129890Y-24680
X129890Y-27220
X129890Y-29760
X129890Y-32300
X129890Y-34840
X129890Y-37380
X129890Y-39920
X129890Y-42460
X129890Y-45000
X129890Y-47540
X129890Y-50080
X129890Y-52620
X129890Y-55160
X129890Y-57700
X129890Y-60240
X129890Y-62780
T4
X106000Y-15000
X106000Y-78000
X136000Y-15000
X136000Y-78000
T5
X106750Y-20450
X106750Y-72450
X135250Y-20450
X135250Y-72450
T0
M30
