G04 #@! TF.GenerationSoftware,KiCad,Pcbnew,(6.0.4-0)*
G04 #@! TF.CreationDate,2022-10-01T00:01:47-05:00*
G04 #@! TF.ProjectId,keezyboost40,6b65657a-7962-46f6-9f73-7434302e6b69,rev?*
G04 #@! TF.SameCoordinates,Original*
G04 #@! TF.FileFunction,Copper,L2,Bot*
G04 #@! TF.FilePolarity,Positive*
%FSLAX46Y46*%
G04 Gerber Fmt 4.6, Leading zero omitted, Abs format (unit mm)*
G04 Created by KiCad (PCBNEW (6.0.4-0)) date 2022-10-01 00:01:47*
%MOMM*%
%LPD*%
G01*
G04 APERTURE LIST*
G04 #@! TA.AperFunction,SMDPad,CuDef*
%ADD10R,2.600000X2.600000*%
G04 #@! TD*
G04 #@! TA.AperFunction,ComponentPad*
%ADD11C,3.800000*%
G04 #@! TD*
G04 #@! TA.AperFunction,ComponentPad*
%ADD12C,4.000000*%
G04 #@! TD*
G04 #@! TA.AperFunction,ComponentPad*
%ADD13R,1.650000X1.650000*%
G04 #@! TD*
G04 #@! TA.AperFunction,ComponentPad*
%ADD14C,1.650000*%
G04 #@! TD*
G04 #@! TA.AperFunction,SMDPad,CuDef*
%ADD15R,1.200000X0.900000*%
G04 #@! TD*
G04 #@! TA.AperFunction,SMDPad,CuDef*
%ADD16R,3.500000X1.700000*%
G04 #@! TD*
G04 #@! TA.AperFunction,ComponentPad*
%ADD17O,1.700000X1.700000*%
G04 #@! TD*
G04 #@! TA.AperFunction,ComponentPad*
%ADD18R,1.700000X1.700000*%
G04 #@! TD*
G04 #@! TA.AperFunction,SMDPad,CuDef*
%ADD19R,2.180000X1.600000*%
G04 #@! TD*
G04 #@! TA.AperFunction,ViaPad*
%ADD20C,0.800000*%
G04 #@! TD*
G04 #@! TA.AperFunction,Conductor*
%ADD21C,0.250000*%
G04 #@! TD*
G04 APERTURE END LIST*
D10*
X205275000Y-60950000D03*
X193725000Y-58750000D03*
X61275000Y-43950000D03*
X49725000Y-41750000D03*
X97275000Y-26950000D03*
X85725000Y-24750000D03*
X79275000Y-77950000D03*
X67725000Y-75750000D03*
X151275000Y-77950000D03*
X139725000Y-75750000D03*
X187275000Y-26950000D03*
X175725000Y-24750000D03*
X25275000Y-26950000D03*
X13725000Y-24750000D03*
X43275000Y-43950000D03*
X31725000Y-41750000D03*
X79275000Y-43950000D03*
X67725000Y-41750000D03*
X43275000Y-77950000D03*
X31725000Y-75750000D03*
X223275000Y-43950000D03*
X211725000Y-41750000D03*
X25275000Y-60950000D03*
X13725000Y-58750000D03*
X43275000Y-26950000D03*
X31725000Y-24750000D03*
X97275000Y-77950000D03*
X85725000Y-75750000D03*
X205275000Y-26950000D03*
X193725000Y-24750000D03*
X205275000Y-77950000D03*
X193725000Y-75750000D03*
X223275000Y-60950000D03*
X211725000Y-58750000D03*
X25275000Y-43950000D03*
X13725000Y-41750000D03*
X61275000Y-60950000D03*
X49725000Y-58750000D03*
X205275000Y-43950000D03*
X193725000Y-41750000D03*
X151275000Y-60950000D03*
X139725000Y-58750000D03*
X187275000Y-43950000D03*
X175725000Y-41750000D03*
X187275000Y-77950000D03*
X175725000Y-75750000D03*
X61275000Y-77950000D03*
X49725000Y-75750000D03*
X223275000Y-77950000D03*
X211725000Y-75750000D03*
X223275000Y-26950000D03*
X211725000Y-24750000D03*
X97275000Y-43950000D03*
X85725000Y-41750000D03*
X169275000Y-60950000D03*
X157725000Y-58750000D03*
X61275000Y-26950000D03*
X49725000Y-24750000D03*
X25275000Y-77950000D03*
X13725000Y-75750000D03*
X151275000Y-26950000D03*
X139725000Y-24750000D03*
D11*
X106000000Y-78000000D03*
X136000000Y-78000000D03*
D10*
X169275000Y-77950000D03*
X157725000Y-75750000D03*
X169275000Y-43950000D03*
X157725000Y-41750000D03*
D12*
X106750000Y-72450000D03*
X106750000Y-20450000D03*
X135250000Y-20450000D03*
X135250000Y-72450000D03*
D13*
X112110000Y-72950000D03*
D14*
X114650000Y-72950000D03*
X117190000Y-72950000D03*
X119730000Y-72950000D03*
X122270000Y-72950000D03*
X124810000Y-72950000D03*
X127350000Y-72950000D03*
X129890000Y-72950000D03*
D11*
X106000000Y-15000000D03*
D10*
X169275000Y-26950000D03*
X157725000Y-24750000D03*
X79275000Y-26950000D03*
X67725000Y-24750000D03*
X187275000Y-60950000D03*
X175725000Y-58750000D03*
X79275000Y-60950000D03*
X67725000Y-58750000D03*
X43275000Y-60950000D03*
X31725000Y-58750000D03*
D11*
X136000000Y-15000000D03*
D10*
X97275000Y-60950000D03*
X85725000Y-58750000D03*
X151275000Y-43950000D03*
X139725000Y-41750000D03*
D15*
X225775100Y-63450000D03*
X225775100Y-60150000D03*
X207775100Y-29450000D03*
X207775100Y-26150000D03*
X63775100Y-46450000D03*
X63775100Y-43150000D03*
X171775100Y-75450000D03*
X171775100Y-78750000D03*
X27775100Y-63450000D03*
X27775100Y-60150000D03*
X99775100Y-75450000D03*
X99775100Y-78750000D03*
X99775100Y-46450000D03*
X99775100Y-43150000D03*
X64100000Y-75450000D03*
X64100000Y-78750000D03*
X63775100Y-29450000D03*
X63775100Y-26150000D03*
X27775100Y-29450000D03*
X27775100Y-26150000D03*
X207775100Y-75450000D03*
X207775100Y-78750000D03*
D16*
X130790000Y-14520000D03*
D17*
X129890000Y-14520000D03*
X129890000Y-17060000D03*
D16*
X130790000Y-17060000D03*
D18*
X129890000Y-19600000D03*
D16*
X130790000Y-19600000D03*
D17*
X129890000Y-22140000D03*
D16*
X130790000Y-22140000D03*
X130790000Y-24680000D03*
D17*
X129890000Y-24680000D03*
D16*
X130790000Y-27220000D03*
D17*
X129890000Y-27220000D03*
D16*
X130790000Y-29760000D03*
D17*
X129890000Y-29760000D03*
D18*
X129890000Y-32300000D03*
D16*
X130790000Y-32300000D03*
X130790000Y-34840000D03*
D17*
X129890000Y-34840000D03*
X129890000Y-37380000D03*
D16*
X130790000Y-37380000D03*
X130790000Y-39920000D03*
D17*
X129890000Y-39920000D03*
X129890000Y-42460000D03*
D16*
X130790000Y-42460000D03*
X130790000Y-45000000D03*
D18*
X129890000Y-45000000D03*
D16*
X130790000Y-47540000D03*
D17*
X129890000Y-47540000D03*
X129890000Y-50080000D03*
D16*
X130790000Y-50080000D03*
D17*
X129890000Y-52620000D03*
D16*
X130790000Y-52620000D03*
D17*
X129890000Y-55160000D03*
D16*
X130790000Y-55160000D03*
X130790000Y-57700000D03*
D18*
X129890000Y-57700000D03*
D16*
X130790000Y-60240000D03*
D17*
X129890000Y-60240000D03*
X129890000Y-62780000D03*
D16*
X130790000Y-62780000D03*
D17*
X112110000Y-62780000D03*
D16*
X111210000Y-62780000D03*
D17*
X112110000Y-60240000D03*
D16*
X111210000Y-60240000D03*
D18*
X112110000Y-57700000D03*
D16*
X111210000Y-57700000D03*
D17*
X112110000Y-55160000D03*
D16*
X111210000Y-55160000D03*
X111210000Y-52620000D03*
D17*
X112110000Y-52620000D03*
D16*
X111210000Y-50080000D03*
D17*
X112110000Y-50080000D03*
D16*
X111210000Y-47540000D03*
D17*
X112110000Y-47540000D03*
D18*
X112110000Y-45000000D03*
D16*
X111210000Y-45000000D03*
D17*
X112110000Y-42460000D03*
D16*
X111210000Y-42460000D03*
X111210000Y-39920000D03*
D17*
X112110000Y-39920000D03*
D16*
X111210000Y-37380000D03*
D17*
X112110000Y-37380000D03*
X112110000Y-34840000D03*
D16*
X111210000Y-34840000D03*
D18*
X112110000Y-32300000D03*
D16*
X111210000Y-32300000D03*
X111210000Y-29760000D03*
D17*
X112110000Y-29760000D03*
D16*
X111210000Y-27220000D03*
D17*
X112110000Y-27220000D03*
X112110000Y-24680000D03*
D16*
X111210000Y-24680000D03*
D17*
X112110000Y-22140000D03*
D16*
X111210000Y-22140000D03*
D18*
X112110000Y-19600000D03*
D16*
X111210000Y-19600000D03*
X111210000Y-17060000D03*
D17*
X112110000Y-17060000D03*
D16*
X111210000Y-14520000D03*
D17*
X112110000Y-14520000D03*
D15*
X45775100Y-63450000D03*
X45775100Y-60150000D03*
X153775100Y-46450000D03*
X153775100Y-43150000D03*
X45775100Y-29450000D03*
X45775100Y-26150000D03*
X225775100Y-46450000D03*
X225775100Y-43150000D03*
X81775100Y-29450000D03*
X81775100Y-26150000D03*
X208100000Y-63450000D03*
X208100000Y-60150000D03*
X153775100Y-75450000D03*
X153775100Y-78750000D03*
X99775100Y-29450000D03*
X99775100Y-26150000D03*
X27775100Y-46450000D03*
X27775100Y-43150000D03*
X81775100Y-63450000D03*
X81775100Y-60150000D03*
X226100000Y-29450000D03*
X226100000Y-26150000D03*
X46100000Y-75450000D03*
X46100000Y-78750000D03*
X82100000Y-46450000D03*
X82100000Y-43150000D03*
X171775100Y-46450000D03*
X171775100Y-43150000D03*
X189775100Y-46450000D03*
X189775100Y-43150000D03*
D19*
X140666250Y-50006250D03*
X149846250Y-50006250D03*
D15*
X171775100Y-29450000D03*
X171775100Y-26150000D03*
X153775100Y-29450000D03*
X153775100Y-26150000D03*
X171775100Y-63450000D03*
X171775100Y-60150000D03*
X63775100Y-63450000D03*
X63775100Y-60150000D03*
X189775100Y-75450000D03*
X189775100Y-78750000D03*
X225775100Y-75450000D03*
X225775100Y-78750000D03*
X154100000Y-63450000D03*
X154100000Y-60150000D03*
X99775100Y-63450000D03*
X99775100Y-60150000D03*
X45775100Y-46450000D03*
X45775100Y-43150000D03*
X27775100Y-75450000D03*
X27775100Y-78750000D03*
X189925100Y-29450000D03*
X189925100Y-26150000D03*
X81775100Y-75450000D03*
X81775100Y-78750000D03*
X207775100Y-46450000D03*
X207775100Y-43150000D03*
X190100000Y-63450000D03*
X190100000Y-60150000D03*
D20*
X111750000Y-71000000D03*
X111750000Y-64229502D03*
X138906250Y-50006250D03*
X114500000Y-71000000D03*
X108479502Y-64229502D03*
X138906250Y-56356250D03*
X108500000Y-57750000D03*
X136775500Y-65750000D03*
X136750000Y-29750000D03*
X104500000Y-66250000D03*
X103750000Y-29500000D03*
X103025500Y-46500000D03*
X103025500Y-66275500D03*
X137500000Y-43500000D03*
X137775003Y-65750000D03*
X135130000Y-37380000D03*
X102301000Y-63750000D03*
X102102081Y-66657994D03*
X138862989Y-61137011D03*
X138774506Y-65750000D03*
X136051000Y-61000000D03*
X139600689Y-45899311D03*
X139774009Y-65750000D03*
X141785908Y-73648385D03*
X135326500Y-40000000D03*
X101750000Y-75000000D03*
X135326500Y-45714386D03*
X141500000Y-67750000D03*
X102000000Y-67750000D03*
X133500000Y-70500000D03*
X120000000Y-70500000D03*
X133500000Y-60500000D03*
X150812500Y-51593750D03*
X150812500Y-57150000D03*
X31750000Y-61250000D03*
X31750000Y-56250000D03*
X31750000Y-39500000D03*
X31750000Y-44000000D03*
X31750000Y-27000000D03*
X31750000Y-73000000D03*
X49750000Y-56750000D03*
X49750000Y-44000000D03*
X49750000Y-39500000D03*
X49750000Y-61000000D03*
X49750000Y-27000000D03*
X49750000Y-73500000D03*
X49750000Y-37000000D03*
X67750000Y-56500000D03*
X67750000Y-44000000D03*
X67750000Y-73750000D03*
X67750000Y-38750000D03*
X67750000Y-60750000D03*
X67750000Y-26750000D03*
X85750000Y-26750000D03*
X104500000Y-50250000D03*
X85750000Y-39250000D03*
X86000000Y-43500000D03*
X85750000Y-60750000D03*
X104474500Y-57000000D03*
X85750000Y-73500000D03*
X85750000Y-56500000D03*
X140500000Y-73500000D03*
X140500000Y-26750000D03*
X140500000Y-60500000D03*
X140500000Y-56750000D03*
X140500000Y-39500000D03*
X140500000Y-44000000D03*
X157750000Y-73750000D03*
X157750000Y-39750000D03*
X157750000Y-26750000D03*
X157750000Y-61000000D03*
X157750000Y-56750000D03*
X157750000Y-43750000D03*
X175750000Y-61000000D03*
X175750000Y-26750000D03*
X175750000Y-73500000D03*
X175750000Y-56500000D03*
X175750000Y-43750000D03*
X175750000Y-39750000D03*
X193750000Y-60500000D03*
X193750000Y-56500000D03*
X193750000Y-43750000D03*
X193750000Y-26750000D03*
X193750000Y-73500000D03*
X193750000Y-39500000D03*
X211750000Y-39500000D03*
X211750000Y-56750000D03*
X211750000Y-73750000D03*
X211750000Y-26750000D03*
X211750000Y-43750000D03*
X211750000Y-60750000D03*
X106500000Y-69322551D03*
X106775500Y-62750000D03*
X122250000Y-69500000D03*
X107500000Y-65500000D03*
X107755002Y-60250000D03*
X117000000Y-65500000D03*
X101474500Y-55250000D03*
X127500000Y-75000000D03*
X100829952Y-74609472D03*
X124750000Y-75750000D03*
X100750000Y-52750000D03*
X101488084Y-76149661D03*
X105500000Y-25000000D03*
X111000000Y-68750000D03*
X105500000Y-68598051D03*
D21*
X138906250Y-50006250D02*
X141460000Y-50006250D01*
X129890000Y-57700000D02*
X137562500Y-57700000D01*
X111750000Y-64229502D02*
X108479502Y-64229502D01*
X114500000Y-71000000D02*
X111750000Y-71000000D01*
X112060000Y-57750000D02*
X112110000Y-57700000D01*
X137562500Y-57700000D02*
X138906250Y-56356250D01*
X108500000Y-57750000D02*
X112060000Y-57750000D01*
X211610768Y-28025479D02*
X209199621Y-28025479D01*
X129900000Y-29750000D02*
X129890000Y-29760000D01*
X209199621Y-28025479D02*
X207775100Y-29450000D01*
X136275500Y-66250000D02*
X136775500Y-65750000D01*
X189925100Y-29450000D02*
X207775100Y-29450000D01*
X138250000Y-29750000D02*
X136750000Y-29750000D01*
X226100000Y-29450000D02*
X213035289Y-29450000D01*
X38424505Y-28025479D02*
X39849026Y-29450000D01*
X29199621Y-28025479D02*
X38424505Y-28025479D01*
X153775100Y-29450000D02*
X171775100Y-29450000D01*
X39849026Y-29450000D02*
X45775100Y-29450000D01*
X171775100Y-29450000D02*
X189925100Y-29450000D01*
X81775100Y-29450000D02*
X99775100Y-29450000D01*
X45775100Y-29450000D02*
X63775100Y-29450000D01*
X136750000Y-29750000D02*
X129900000Y-29750000D01*
X104500000Y-66250000D02*
X136275500Y-66250000D01*
X138550000Y-29450000D02*
X153775100Y-29450000D01*
X99775100Y-29450000D02*
X103700000Y-29450000D01*
X63775100Y-29450000D02*
X81775100Y-29450000D01*
X103700000Y-29450000D02*
X103750000Y-29500000D01*
X27775100Y-29450000D02*
X29199621Y-28025479D01*
X138250000Y-29750000D02*
X138550000Y-29450000D01*
X213035289Y-29450000D02*
X211610768Y-28025479D01*
X26075000Y-26150000D02*
X25275000Y-26950000D01*
X27775100Y-26150000D02*
X26075000Y-26150000D01*
X44075000Y-26150000D02*
X43275000Y-26950000D01*
X45775100Y-26150000D02*
X44075000Y-26150000D01*
X62075000Y-26150000D02*
X61275000Y-26950000D01*
X63775100Y-26150000D02*
X62075000Y-26150000D01*
X81775100Y-26150000D02*
X80075000Y-26150000D01*
X80075000Y-26150000D02*
X79275000Y-26950000D01*
X98075000Y-26150000D02*
X97275000Y-26950000D01*
X99775100Y-26150000D02*
X98075000Y-26150000D01*
X152075000Y-26150000D02*
X151275000Y-26950000D01*
X153775100Y-26150000D02*
X152075000Y-26150000D01*
X170075000Y-26150000D02*
X169275000Y-26950000D01*
X171775100Y-26150000D02*
X170075000Y-26150000D01*
X189925100Y-26150000D02*
X188075000Y-26150000D01*
X188075000Y-26150000D02*
X187275000Y-26950000D01*
X206075000Y-26150000D02*
X205275000Y-26950000D01*
X207775100Y-26150000D02*
X206075000Y-26150000D01*
X226100000Y-26150000D02*
X224075000Y-26150000D01*
X224075000Y-26150000D02*
X223275000Y-26950000D01*
X136575603Y-66974511D02*
X137775003Y-65775111D01*
X137475489Y-42725489D02*
X137475489Y-43475489D01*
X103724511Y-66974511D02*
X136575603Y-66974511D01*
X87950000Y-46450000D02*
X99775100Y-46450000D01*
X103025500Y-66275500D02*
X103724511Y-66974511D01*
X103025500Y-46500000D02*
X102975500Y-46450000D01*
X63775100Y-46450000D02*
X45775100Y-46450000D01*
X102975500Y-46450000D02*
X99775100Y-46450000D01*
X159035289Y-46450000D02*
X157585289Y-45000000D01*
X155225100Y-45000000D02*
X153775100Y-46450000D01*
X86525479Y-45025479D02*
X87950000Y-46450000D01*
X137775003Y-65775111D02*
X137775003Y-65750000D01*
X45775100Y-46450000D02*
X27775100Y-46450000D01*
X189775100Y-46450000D02*
X171775100Y-46450000D01*
X138100489Y-43350489D02*
X137475489Y-42725489D01*
X82100000Y-46450000D02*
X83524521Y-45025479D01*
X225775100Y-46450000D02*
X207775100Y-46450000D01*
X82100000Y-46450000D02*
X63775100Y-46450000D01*
X207775100Y-46450000D02*
X189775100Y-46450000D01*
X135790978Y-34840000D02*
X129890000Y-34840000D01*
X153775100Y-46450000D02*
X141175978Y-46450000D01*
X137475489Y-43475489D02*
X137500000Y-43500000D01*
X141175978Y-46450000D02*
X138100489Y-43374511D01*
X171775100Y-46450000D02*
X159035289Y-46450000D01*
X137475489Y-36524511D02*
X135790978Y-34840000D01*
X137475489Y-42725489D02*
X137475489Y-36524511D01*
X138100489Y-43374511D02*
X138100489Y-43350489D01*
X83524521Y-45025479D02*
X86525479Y-45025479D01*
X157585289Y-45000000D02*
X155225100Y-45000000D01*
X26075000Y-43150000D02*
X25275000Y-43950000D01*
X27775100Y-43150000D02*
X26075000Y-43150000D01*
X44075000Y-43150000D02*
X43275000Y-43950000D01*
X45775100Y-43150000D02*
X44075000Y-43150000D01*
X63775100Y-43150000D02*
X62075000Y-43150000D01*
X62075000Y-43150000D02*
X61275000Y-43950000D01*
X82100000Y-43150000D02*
X80075000Y-43150000D01*
X80075000Y-43150000D02*
X79275000Y-43950000D01*
X98075000Y-43150000D02*
X97275000Y-43950000D01*
X99775100Y-43150000D02*
X98075000Y-43150000D01*
X152075000Y-43150000D02*
X151275000Y-43950000D01*
X153775100Y-43150000D02*
X152075000Y-43150000D01*
X170075000Y-43150000D02*
X169275000Y-43950000D01*
X171775100Y-43150000D02*
X170075000Y-43150000D01*
X189775100Y-43150000D02*
X188075000Y-43150000D01*
X188075000Y-43150000D02*
X187275000Y-43950000D01*
X206075000Y-43150000D02*
X205275000Y-43950000D01*
X207775100Y-43150000D02*
X206075000Y-43150000D01*
X224075000Y-43150000D02*
X223275000Y-43950000D01*
X225775100Y-43150000D02*
X224075000Y-43150000D01*
X171775100Y-63450000D02*
X154100000Y-63450000D01*
X208100000Y-63450000D02*
X190100000Y-63450000D01*
X45775100Y-63450000D02*
X63775100Y-63450000D01*
X138862989Y-61137011D02*
X136188011Y-61137011D01*
X209524521Y-62025479D02*
X208100000Y-63450000D01*
X154100000Y-63450000D02*
X141175978Y-63450000D01*
X135130000Y-37380000D02*
X129890000Y-37380000D01*
X27775100Y-63450000D02*
X29199621Y-62025479D01*
X29199621Y-62025479D02*
X38424505Y-62025479D01*
X211610768Y-62025479D02*
X209524521Y-62025479D01*
X102001000Y-63450000D02*
X102301000Y-63750000D01*
X102868118Y-67424031D02*
X137125586Y-67424031D01*
X138774506Y-65775111D02*
X138774506Y-65750000D01*
X81775100Y-63450000D02*
X99775100Y-63450000D01*
X136188011Y-61137011D02*
X136051000Y-61000000D01*
X99775100Y-63450000D02*
X102001000Y-63450000D01*
X137125586Y-67424031D02*
X138774506Y-65775111D01*
X102102081Y-66657994D02*
X102868118Y-67424031D01*
X190100000Y-63450000D02*
X171775100Y-63450000D01*
X38424505Y-62025479D02*
X39849026Y-63450000D01*
X39849026Y-63450000D02*
X45775100Y-63450000D01*
X213035289Y-63450000D02*
X211610768Y-62025479D01*
X63775100Y-63450000D02*
X81775100Y-63450000D01*
X225775100Y-63450000D02*
X213035289Y-63450000D01*
X141175978Y-63450000D02*
X138862989Y-61137011D01*
X27775100Y-60150000D02*
X26075000Y-60150000D01*
X26075000Y-60150000D02*
X25275000Y-60950000D01*
X45775100Y-60150000D02*
X44075000Y-60150000D01*
X44075000Y-60150000D02*
X43275000Y-60950000D01*
X62075000Y-60150000D02*
X61275000Y-60950000D01*
X63775100Y-60150000D02*
X62075000Y-60150000D01*
X80075000Y-60150000D02*
X79275000Y-60950000D01*
X81775100Y-60150000D02*
X80075000Y-60150000D01*
X99775100Y-60150000D02*
X98075000Y-60150000D01*
X98075000Y-60150000D02*
X97275000Y-60950000D01*
X154100000Y-60150000D02*
X152075000Y-60150000D01*
X152075000Y-60150000D02*
X151275000Y-60950000D01*
X171775100Y-60150000D02*
X170075000Y-60150000D01*
X170075000Y-60150000D02*
X169275000Y-60950000D01*
X190100000Y-60150000D02*
X188075000Y-60150000D01*
X188075000Y-60150000D02*
X187275000Y-60950000D01*
X208100000Y-60150000D02*
X206075000Y-60150000D01*
X206075000Y-60150000D02*
X205275000Y-60950000D01*
X225775100Y-60150000D02*
X224075000Y-60150000D01*
X224075000Y-60150000D02*
X223275000Y-60950000D01*
X32450521Y-70774579D02*
X35774579Y-70774579D01*
X86450521Y-70774579D02*
X89820256Y-70774579D01*
X146694062Y-73648385D02*
X148495677Y-75450000D01*
X50775421Y-70774579D02*
X53820256Y-70774579D01*
X215820256Y-70774579D02*
X212450521Y-70774579D01*
X68775421Y-70774579D02*
X71820256Y-70774579D01*
X81775100Y-75450000D02*
X86450521Y-70774579D01*
X171775100Y-75450000D02*
X165683008Y-75450000D01*
X176450521Y-70774579D02*
X171775100Y-75450000D01*
X101300000Y-75450000D02*
X101750000Y-75000000D01*
X207775100Y-75450000D02*
X201683008Y-75450000D01*
X46100000Y-75450000D02*
X50775421Y-70774579D01*
X220495677Y-75450000D02*
X215820256Y-70774579D01*
X189775100Y-75450000D02*
X184495677Y-75450000D01*
X102123551Y-67873551D02*
X141376449Y-67873551D01*
X184495677Y-75450000D02*
X179820256Y-70774579D01*
X102000000Y-67750000D02*
X102123551Y-67873551D01*
X40450000Y-75450000D02*
X46100000Y-75450000D01*
X139600689Y-45899311D02*
X139415764Y-45714386D01*
X165683008Y-75450000D02*
X161007587Y-70774579D01*
X161007587Y-70774579D02*
X158450521Y-70774579D01*
X179820256Y-70774579D02*
X176450521Y-70774579D01*
X148495677Y-75450000D02*
X153775100Y-75450000D01*
X141376449Y-67873551D02*
X141500000Y-67750000D01*
X141785908Y-73648385D02*
X146694062Y-73648385D01*
X53820256Y-70774579D02*
X58495677Y-75450000D01*
X94495677Y-75450000D02*
X99775100Y-75450000D01*
X139623551Y-67873551D02*
X139623551Y-65900458D01*
X135326500Y-40000000D02*
X129970000Y-40000000D01*
X129970000Y-40000000D02*
X129890000Y-39920000D01*
X194450521Y-70774579D02*
X189775100Y-75450000D01*
X225775100Y-75450000D02*
X220495677Y-75450000D01*
X27775100Y-75450000D02*
X32450521Y-70774579D01*
X197007587Y-70774579D02*
X194450521Y-70774579D01*
X71820256Y-70774579D02*
X76495677Y-75450000D01*
X212450521Y-70774579D02*
X207775100Y-75450000D01*
X201683008Y-75450000D02*
X197007587Y-70774579D01*
X89820256Y-70774579D02*
X94495677Y-75450000D01*
X139623551Y-65900458D02*
X139774009Y-65750000D01*
X99775100Y-75450000D02*
X101300000Y-75450000D01*
X158450521Y-70774579D02*
X153775100Y-75450000D01*
X64100000Y-75450000D02*
X68775421Y-70774579D01*
X76495677Y-75450000D02*
X81775100Y-75450000D01*
X58495677Y-75450000D02*
X64100000Y-75450000D01*
X35774579Y-70774579D02*
X40450000Y-75450000D01*
X139415764Y-45714386D02*
X135326500Y-45714386D01*
X26075000Y-78750000D02*
X25275000Y-77950000D01*
X27775100Y-78750000D02*
X26075000Y-78750000D01*
X46100000Y-78750000D02*
X44075000Y-78750000D01*
X44075000Y-78750000D02*
X43275000Y-77950000D01*
X64100000Y-78750000D02*
X62075000Y-78750000D01*
X62075000Y-78750000D02*
X61275000Y-77950000D01*
X80075000Y-78750000D02*
X79275000Y-77950000D01*
X81775100Y-78750000D02*
X80075000Y-78750000D01*
X99775100Y-78750000D02*
X98075000Y-78750000D01*
X98075000Y-78750000D02*
X97275000Y-77950000D01*
X153775100Y-78750000D02*
X152075000Y-78750000D01*
X152075000Y-78750000D02*
X151275000Y-77950000D01*
X171775100Y-78750000D02*
X170075000Y-78750000D01*
X170075000Y-78750000D02*
X169275000Y-77950000D01*
X188075000Y-78750000D02*
X187275000Y-77950000D01*
X189775100Y-78750000D02*
X188075000Y-78750000D01*
X206075000Y-78750000D02*
X205275000Y-77950000D01*
X207775100Y-78750000D02*
X206075000Y-78750000D01*
X224075000Y-78750000D02*
X223275000Y-77950000D01*
X225775100Y-78750000D02*
X224075000Y-78750000D01*
X133500000Y-70500000D02*
X120000000Y-70500000D01*
X129890000Y-60240000D02*
X130150000Y-60500000D01*
X130150000Y-60500000D02*
X133500000Y-60500000D01*
X150812500Y-50178750D02*
X150640000Y-50006250D01*
X146622839Y-56577162D02*
X147195677Y-57150000D01*
X140926992Y-55160000D02*
X142344154Y-56577162D01*
X147195677Y-57150000D02*
X150812500Y-57150000D01*
X142344154Y-56577162D02*
X146622839Y-56577162D01*
X129890000Y-55160000D02*
X140926992Y-55160000D01*
X150812500Y-51593750D02*
X150812500Y-50178750D01*
X13725000Y-58750000D02*
X13725000Y-75750000D01*
X13725000Y-41750000D02*
X13725000Y-58750000D01*
X13725000Y-30725000D02*
X13725000Y-41750000D01*
X17840000Y-34840000D02*
X112110000Y-34840000D01*
X13725000Y-30725000D02*
X17840000Y-34840000D01*
X13725000Y-24750000D02*
X13725000Y-30725000D01*
X108582437Y-35461459D02*
X110500978Y-37380000D01*
X31725000Y-41750000D02*
X31725000Y-39525000D01*
X31725000Y-39525000D02*
X31750000Y-39500000D01*
X31725000Y-75750000D02*
X31725000Y-73025000D01*
X31750000Y-61250000D02*
X31725000Y-61225000D01*
X110500978Y-37380000D02*
X112110000Y-37380000D01*
X31725000Y-56275000D02*
X31750000Y-56250000D01*
X31750000Y-24775000D02*
X31725000Y-24750000D01*
X50263927Y-35461459D02*
X108582437Y-35461459D01*
X31750000Y-41775000D02*
X31725000Y-41750000D01*
X31750000Y-27000000D02*
X31750000Y-24775000D01*
X31750000Y-39500000D02*
X38545677Y-39500000D01*
X31725000Y-73025000D02*
X31750000Y-73000000D01*
X39134698Y-40089021D02*
X45636365Y-40089021D01*
X45636365Y-40089021D02*
X50263927Y-35461459D01*
X31725000Y-58750000D02*
X31725000Y-56275000D01*
X38545677Y-39500000D02*
X39134698Y-40089021D01*
X31750000Y-44000000D02*
X31750000Y-41775000D01*
X31725000Y-61225000D02*
X31725000Y-58750000D01*
X49725000Y-58750000D02*
X49725000Y-60975000D01*
X50839021Y-35910979D02*
X103910979Y-35910979D01*
X49750000Y-37000000D02*
X50839021Y-35910979D01*
X49725000Y-41750000D02*
X49725000Y-43975000D01*
X49750000Y-41725000D02*
X49725000Y-41750000D01*
X49750000Y-75725000D02*
X49725000Y-75750000D01*
X49750000Y-56750000D02*
X49750000Y-58725000D01*
X49725000Y-26975000D02*
X49750000Y-27000000D01*
X103910979Y-35910979D02*
X110460000Y-42460000D01*
X49725000Y-60975000D02*
X49750000Y-61000000D01*
X49750000Y-58725000D02*
X49725000Y-58750000D01*
X49725000Y-24750000D02*
X49725000Y-26975000D01*
X49750000Y-39500000D02*
X49750000Y-41725000D01*
X110460000Y-42460000D02*
X112110000Y-42460000D01*
X49725000Y-43975000D02*
X49750000Y-44000000D01*
X49750000Y-73500000D02*
X49750000Y-75725000D01*
X67725000Y-38775000D02*
X67725000Y-41750000D01*
X67725000Y-60725000D02*
X67750000Y-60750000D01*
X98525598Y-46000480D02*
X98850589Y-45675489D01*
X67725000Y-41750000D02*
X67725000Y-43975000D01*
X91974985Y-44575959D02*
X93399506Y-46000480D01*
X67750000Y-75725000D02*
X67725000Y-75750000D01*
X67750000Y-44000000D02*
X69750480Y-46000480D01*
X67725000Y-26725000D02*
X67750000Y-26750000D01*
X67750000Y-38750000D02*
X67725000Y-38775000D01*
X93399506Y-46000480D02*
X98525598Y-46000480D01*
X67750000Y-56500000D02*
X67750000Y-58725000D01*
X107675489Y-45675489D02*
X109540000Y-47540000D01*
X69750480Y-46000480D02*
X80850498Y-46000480D01*
X67750000Y-58725000D02*
X67725000Y-58750000D01*
X109540000Y-47540000D02*
X112110000Y-47540000D01*
X82275019Y-44575959D02*
X91974985Y-44575959D01*
X67725000Y-58750000D02*
X67725000Y-60725000D01*
X67750000Y-73750000D02*
X67750000Y-75725000D01*
X98850589Y-45675489D02*
X107675489Y-45675489D01*
X67725000Y-24750000D02*
X67725000Y-26725000D01*
X80850498Y-46000480D02*
X82275019Y-44575959D01*
X67725000Y-43975000D02*
X67750000Y-44000000D01*
X85750000Y-56500000D02*
X92545677Y-56500000D01*
X85725000Y-56525000D02*
X85750000Y-56500000D01*
X85750000Y-26750000D02*
X85750000Y-24775000D01*
X85725000Y-73525000D02*
X85750000Y-73500000D01*
X85725000Y-58750000D02*
X85725000Y-56525000D01*
X85725000Y-43225000D02*
X86000000Y-43500000D01*
X85725000Y-41750000D02*
X85725000Y-39275000D01*
X103491957Y-57089021D02*
X104385479Y-57089021D01*
X85725000Y-75750000D02*
X85725000Y-73525000D01*
X85750000Y-60750000D02*
X85750000Y-58775000D01*
X104500000Y-50250000D02*
X111940000Y-50250000D01*
X104385479Y-57089021D02*
X104474500Y-57000000D01*
X111940000Y-50250000D02*
X112110000Y-50080000D01*
X93134698Y-57089021D02*
X103491957Y-57089021D01*
X92545677Y-56500000D02*
X93134698Y-57089021D01*
X85725000Y-41750000D02*
X85725000Y-43225000D01*
X85725000Y-39275000D02*
X85750000Y-39250000D01*
X85750000Y-58775000D02*
X85725000Y-58750000D01*
X85750000Y-24775000D02*
X85725000Y-24750000D01*
X139725000Y-41750000D02*
X140500000Y-40975000D01*
X139725000Y-75750000D02*
X139725000Y-74275000D01*
X140500000Y-40975000D02*
X140500000Y-39500000D01*
X139725000Y-57525000D02*
X140500000Y-56750000D01*
X140500000Y-42525000D02*
X139725000Y-41750000D01*
X140500000Y-25525000D02*
X139725000Y-24750000D01*
X140500000Y-44000000D02*
X140500000Y-42525000D01*
X129890000Y-27220000D02*
X137255000Y-27220000D01*
X137255000Y-27220000D02*
X139725000Y-24750000D01*
X139725000Y-58750000D02*
X139725000Y-57525000D01*
X140500000Y-59525000D02*
X139725000Y-58750000D01*
X140500000Y-26750000D02*
X140500000Y-25525000D01*
X140500000Y-60500000D02*
X140500000Y-59525000D01*
X139725000Y-74275000D02*
X140500000Y-73500000D01*
X138350499Y-22875479D02*
X146921156Y-22875479D01*
X157750000Y-56750000D02*
X157750000Y-58725000D01*
X157750000Y-75725000D02*
X157725000Y-75750000D01*
X148795677Y-24750000D02*
X157725000Y-24750000D01*
X157750000Y-58725000D02*
X157725000Y-58750000D01*
X157725000Y-26725000D02*
X157750000Y-26750000D01*
X157750000Y-41725000D02*
X157725000Y-41750000D01*
X136545978Y-24680000D02*
X138350499Y-22875479D01*
X157725000Y-41750000D02*
X157725000Y-43725000D01*
X157725000Y-58750000D02*
X157725000Y-60975000D01*
X157750000Y-73750000D02*
X157750000Y-75725000D01*
X157725000Y-24750000D02*
X157725000Y-26725000D01*
X129890000Y-24680000D02*
X136545978Y-24680000D01*
X146921156Y-22875479D02*
X148795677Y-24750000D01*
X157750000Y-39750000D02*
X157750000Y-41725000D01*
X157725000Y-60975000D02*
X157750000Y-61000000D01*
X157725000Y-43725000D02*
X157750000Y-43750000D01*
X175725000Y-43725000D02*
X175750000Y-43750000D01*
X175725000Y-26725000D02*
X175750000Y-26750000D01*
X175725000Y-41750000D02*
X175725000Y-43725000D01*
X175750000Y-39750000D02*
X175750000Y-41725000D01*
X129890000Y-22140000D02*
X130740000Y-22990000D01*
X175725000Y-24750000D02*
X175725000Y-26725000D01*
X173250000Y-24750000D02*
X175725000Y-24750000D01*
X175750000Y-73500000D02*
X175750000Y-75725000D01*
X175750000Y-58725000D02*
X175725000Y-58750000D01*
X175725000Y-58750000D02*
X175725000Y-60975000D01*
X175725000Y-60975000D02*
X175750000Y-61000000D01*
X137600261Y-22990000D02*
X141679282Y-18910979D01*
X167410979Y-18910979D02*
X173250000Y-24750000D01*
X175750000Y-41725000D02*
X175725000Y-41750000D01*
X130740000Y-22990000D02*
X137600261Y-22990000D01*
X175750000Y-56500000D02*
X175750000Y-58725000D01*
X175750000Y-75725000D02*
X175725000Y-75750000D01*
X141679282Y-18910979D02*
X167410979Y-18910979D01*
X193750000Y-43750000D02*
X193750000Y-41775000D01*
X193725000Y-39525000D02*
X193750000Y-39500000D01*
X130955489Y-18125489D02*
X184125489Y-18125489D01*
X193750000Y-60500000D02*
X193750000Y-58775000D01*
X193750000Y-58775000D02*
X193725000Y-58750000D01*
X193725000Y-75750000D02*
X193725000Y-73525000D01*
X190750000Y-24750000D02*
X193725000Y-24750000D01*
X193725000Y-73525000D02*
X193750000Y-73500000D01*
X129890000Y-17060000D02*
X130955489Y-18125489D01*
X193725000Y-56525000D02*
X193750000Y-56500000D01*
X193725000Y-41750000D02*
X193725000Y-39525000D01*
X193725000Y-58750000D02*
X193725000Y-56525000D01*
X193750000Y-41775000D02*
X193725000Y-41750000D01*
X193750000Y-24775000D02*
X193725000Y-24750000D01*
X184125489Y-18125489D02*
X190750000Y-24750000D01*
X193750000Y-26750000D02*
X193750000Y-24775000D01*
X211750000Y-60750000D02*
X211750000Y-58775000D01*
X129890000Y-14520000D02*
X132374065Y-14520000D01*
X211750000Y-26750000D02*
X211750000Y-24775000D01*
X135530034Y-17675969D02*
X206200969Y-17675969D01*
X211725000Y-23200000D02*
X211725000Y-24750000D01*
X211725000Y-73775000D02*
X211750000Y-73750000D01*
X211750000Y-24775000D02*
X211725000Y-24750000D01*
X211725000Y-41750000D02*
X211725000Y-39525000D01*
X211725000Y-75750000D02*
X211725000Y-73775000D01*
X211725000Y-56775000D02*
X211750000Y-56750000D01*
X211750000Y-41775000D02*
X211725000Y-41750000D01*
X211725000Y-58750000D02*
X211725000Y-56775000D01*
X132374065Y-14520000D02*
X135530034Y-17675969D01*
X211725000Y-39525000D02*
X211750000Y-39500000D01*
X206200969Y-17675969D02*
X211725000Y-23200000D01*
X211750000Y-58775000D02*
X211725000Y-58750000D01*
X211750000Y-43750000D02*
X211750000Y-41775000D01*
X117038040Y-69474511D02*
X106676940Y-69474511D01*
X122224511Y-69474511D02*
X122250000Y-69500000D01*
X112080000Y-62750000D02*
X112110000Y-62780000D01*
X117038040Y-69474511D02*
X122224511Y-69474511D01*
X106676940Y-69474511D02*
X106524980Y-69322551D01*
X106775500Y-62750000D02*
X112080000Y-62750000D01*
X106524980Y-69322551D02*
X106500000Y-69322551D01*
X112100000Y-60250000D02*
X112110000Y-60240000D01*
X117000000Y-65500000D02*
X107500000Y-65500000D01*
X107755002Y-60250000D02*
X112100000Y-60250000D01*
X106012644Y-75000000D02*
X127500000Y-75000000D01*
X112110000Y-55160000D02*
X101564500Y-55160000D01*
X101163935Y-74275489D02*
X105288133Y-74275489D01*
X105288133Y-74275489D02*
X106012644Y-75000000D01*
X100829952Y-74609472D02*
X101163935Y-74275489D01*
X101564500Y-55160000D02*
X101474500Y-55250000D01*
X100880000Y-52620000D02*
X100750000Y-52750000D01*
X112110000Y-52620000D02*
X100880000Y-52620000D01*
X124724511Y-75775489D02*
X124750000Y-75750000D01*
X101862256Y-75775489D02*
X124724511Y-75775489D01*
X101488084Y-76149661D02*
X101862256Y-75775489D01*
X110848051Y-68598051D02*
X111000000Y-68750000D01*
X105500000Y-25000000D02*
X111790000Y-25000000D01*
X111790000Y-25000000D02*
X112110000Y-24680000D01*
X105500000Y-68598051D02*
X110848051Y-68598051D01*
M02*
